<?xml version="1.0" standalone="no"?>
  <!DOCTYPE svg PUBLIC "-//W3C//DTD SVG 1.1//EN" "http://www.w3.org/Graphics/SVG/1.1/DTD/svg11.dtd" >
  <svg>
  <metadata>
  Created by font-carrier
  </metadata>
  <defs>
  <font id="Scriptorama" horiz-adv-x="64866" vert-adv-y="64866" >
    <font-face
      
      font-family="Scriptorama"
      
      font-weight="400"
      
      font-stretch="normal"
      
      units-per-em="1000"
      
      ascent="1971"
      
      descent="-947"
      
    />
      <missing-glyph />

      

      
      <glyph glyph-name="uni44" unicode="&#x44;" d="M670 706Q632 719 576.50 727.50Q521 736 458.50 737.50Q396 739 332 731.50Q268 724 212.50 703.50Q157 683 115.50 648.50Q74 614 56 562Q42 523 49.50 484.50Q57 446 75 411.50Q93 377 116.50 347.50Q140 318 159 297Q177 277 171.50 271.50Q166 266 146 284Q78 350 45.50 413Q13 476 24 539Q35 599 77.50 641Q120 683 180 709.50Q240 736 311.50 748Q383 760 452.50 762Q522 764 583 757Q644 750 683 738Q776 708 840.50 662Q905 616 942.50 560.50Q980 505 990 442.50Q1000 380 984 317.50Q968 255 925.50 195.50Q883 136 815 86Q790 68 749.50 46Q709 24 662 5Q615-14 564.50-27Q514-40 469-40Q425-40 390-23.50Q355-7 338 33Q334 41 331.50 41.50Q329 42 324 33Q318 17 312.50 2Q307-13 302-34Q299-51 291.50-51.50Q284-52 288-31Q292-11 301 14.50Q310 40 318 63Q320 68 319.50 69.50Q319 71 317 78Q297 128 341 131Q345 131 343 131Q342 131 344 135Q364 176 389 222.50Q414 269 441 315.50Q468 362 496 407.50Q524 453 550 492Q576 531 599 562.50Q622 594 639 613Q644 619 653 622.50Q662 626 669 626Q677 626 680.50 622.50Q684 619 679 612Q660 588 631.50 548Q603 508 570 459.50Q537 411 503 358.50Q469 306 439 257Q409 208 386 167Q363 126 353 101Q346 87 346.50 68Q347 49 355 36Q368 12 397.50 0.50Q427-11 465.50-12.50Q504-14 549.50-6.50Q595 1 640 16.50Q685 32 727.50 53.50Q770 75 804 102Q892 173 927.50 261Q963 349 946.50 434.50Q930 520 860.50 593Q791 666 670 706Z"  horiz-adv-x="864" vert-adv-y="1000"  />

      
      <glyph glyph-name="uni45" unicode="&#x45;" d="M959 637Q959 657 937 664Q888 672 826.50 679Q765 686 691 687Q678 687 672 694Q666 701 663 709Q660 717 657 721.50Q654 726 648 722Q639 715 631 707.50Q623 700 613 689Q548 685 489.50 679.50Q431 674 377 662.50Q323 651 272.50 631Q222 611 174 580Q100 530 63.50 473Q27 416 30 338Q30 311 36 283Q42 255 51 228.50Q60 202 72 178.50Q84 155 98 136Q106 125 112.50 128.50Q119 132 112 144Q83 188 67.50 237Q52 286 55 338Q60 409 99 462Q138 515 191 551Q234 577 284 595.50Q334 614 385 625.50Q436 637 485.50 642.50Q535 648 577 648Q521 580 469 508.50Q417 437 369 365Q361 363 350.50 361.50Q340 360 329 358.50Q318 357 309 355Q300 353 296 349Q291 344 291 338Q291 333 293.50 327.50Q296 322 300 317.50Q304 313 307 311Q312 303 321 302Q330 301 338 301Q326 283 313 254Q300 225 289 193Q278 161 271.50 127.50Q265 94 267 67Q270 31 289 7.50Q308-16 332-29.50Q356-43 379.50-48.50Q403-54 416-54Q452-54 494.50-46Q537-38 580.50-23Q624-8 666.50 14Q709 36 745 65Q752 69 750.50 76Q749 83 738 77Q700 55 656 37.50Q612 20 569 7.50Q526-5 486.50-13Q447-21 417-23Q396-25 374.50-22Q353-19 335.50-9Q318 1 307 19Q296 37 296 64Q297 100 306 135Q315 170 328 202.50Q341 235 356 263.50Q371 292 384 315Q403 320 432.50 324.50Q462 329 497.50 332.50Q533 336 571 339Q609 342 646 344Q683 346 716 347.50Q749 349 773 349Q788 349 787.50 358Q787 367 773 369Q734 372 688 373Q642 374 595 373.50Q548 373 501 371Q454 369 414 366Q460 438 517.50 513Q575 588 636 648Q670 648 711.50 646Q753 644 793.50 641Q834 638 869.50 633.50Q905 629 927 625Q938 621 949.50 622.50Q961 624 959 637Z"  horiz-adv-x="805" vert-adv-y="1000"  />

      
      <glyph glyph-name="uni46" unicode="&#x46;" d="M982 734Q971 744 976.50 745Q982 746 990 741Q1015 727 1027.50 703Q1040 679 1038 654.50Q1036 630 1017.50 610.50Q999 591 963 587Q907 580 848.50 591.50Q790 603 729 623Q668 643 604 667Q540 691 472.50 709Q405 727 334.50 735Q264 743 189 732Q136 723 101.50 689.50Q67 656 50.50 607.50Q34 559 33.50 502Q33 445 48 390.50Q63 336 92 289.50Q121 243 164 215Q197 195 235.50 192Q274 189 309.50 201.50Q345 214 373.50 241Q402 268 414 308Q415 311 422 312Q429 313 429 308Q423 267 393.50 237Q364 207 325 190.50Q286 174 245 173Q204 172 176 189Q119 225 81.50 279Q44 333 27 395.50Q10 458 13 522Q16 586 40 642Q62 693 100.50 722Q139 751 188.50 762.50Q238 774 294.50 771.50Q351 769 409.50 757Q468 745 524.50 726.50Q581 708 631 689Q730 650 810 630Q890 610 942 610Q995 610 1015.50 630.50Q1036 651 1016 693Q1010 707 1001.50 716Q993 725 982 734M712 615Q718 620 723 618Q728 616 731 611Q734 606 733.50 598.50Q733 591 727 584Q721 576 705 556.50Q689 537 670 509.50Q651 482 631 449Q611 416 597 382Q593 372 594.50 370Q596 368 607 366Q631 362 661.50 361Q692 360 722 360Q752 360 777 360.50Q802 361 815 361Q830 361 829 357Q828 353 814 351Q801 347 772 345Q743 343 709.50 342.50Q676 342 644 341.50Q612 341 593 340Q582 340 577 335.50Q572 331 569 320Q557 289 544.50 253.50Q532 218 522.50 182.50Q513 147 507.50 113.50Q502 80 504 53Q504 47 506 45Q508 43 510 41.50Q512 40 513.50 37.50Q515 35 514 28Q508 7 496 2Q484-3 482 18Q479 37 483.50 73.50Q488 110 496.50 153.50Q505 197 517 241Q529 285 542 320Q546 331 538 335Q530 339 521 339Q515 339 510 337.50Q505 336 501.50 334.50Q498 333 496.50 333.50Q495 334 496 338Q498 349 509 355Q520 361 543 366Q554 369 559.50 372Q565 375 571 389Q587 421 607.50 458Q628 495 651 533Q661 547 652 546Q643 545 629 539Q622 536 619 536.50Q616 537 616 539Q616 542 618 545Q620 548 624 549Q650 561 674 582Q698 603 712 615Z"  horiz-adv-x="870" vert-adv-y="1000"  />

      
      <glyph glyph-name="uni47" unicode="&#x47;" d="M244-91Q206-134 206-185Q206-238 245-271Q288-307 363-305Q431-303 532-235Q623-176 759 68Q804 81 810 84Q819 95 827 104.50Q835 114 840 122Q829 159 812 176Q856 263 880.50 311.50Q905 360 912 372Q920 375 926 376.50Q932 378 934 380Q961 408 979 479Q982 488 980 502Q978 515 972 515Q970 515 967 512Q951 498 939.50 488Q928 478 920 471Q896 440 856 346Q852 341 851 340Q816 306 749.50 264.50Q683 223 586 175Q470 117 379 89.50Q288 62 220 63Q135 64 93.50 93.50Q52 123 52 180Q52 215 67 262Q124 433 383 580Q636 724 870 724Q881 724 892 724Q903 724 914 723Q991 715 1035 670Q1046 658 1056 643.50Q1066 629 1074 610Q1077 603 1081 602Q1086 601 1086 606Q1086 611 1083 616Q1065 675 1021 715Q974 758 911 761Q668 776 393 623Q109 464 45 267Q38 247 35 227Q32 207 32 189Q32 114 88 75Q114 57 148 47.50Q182 38 224 40Q287 41 366 63.50Q445 86 542 132Q622 170 691.50 212Q761 254 824 299Q835 307 836 307Q837 307 837 305Q837 301 832 290Q800 222 775 169.50Q750 117 733 77Q630 58 564 43.50Q498 29 468 21Q303-26 244-91M724 62Q611-153 525-221Q450-281 361-284Q290-285 250-259Q216-232 216-193Q216-146 257-108Q314-58 438-13Q480 2 529 15Q578 28 635 42L724 62M806 163Q819 150 817 130Q816 111 804 102Q793 96 784.50 91.50Q776 87 768 85Q780 111 790 130Q800 149 806 163Z"  horiz-adv-x="857" vert-adv-y="1000"  />

      
      <glyph glyph-name="uni4a" unicode="&#x4a;" d="M892 744Q863 681 829 612.50Q795 544 760.50 476.50Q726 409 693 347.50Q660 286 635 238Q631 230 632.50 223.50Q634 217 641 217Q649 217 648.50 212Q648 207 640 205Q636 204 627 200.50Q618 197 610 194Q555 100 496 10.50Q437-79 366-163Q330-205 288.50-244Q247-283 199.50-316Q152-349 98-374.50Q44-400-19-415Q-64-426-96-417Q-128-408-142.50-384Q-157-360-152-323.50Q-147-287-117-243Q-84-194-34-146Q16-98 75-53.50Q134-9 200.50 31Q267 71 333 104.50Q399 138 462 163.50Q525 189 579 206Q611 267 645.50 334Q680 401 712.50 466Q745 531 774 592Q803 653 824 702Q758 702 691 684.50Q624 667 563.50 633Q503 599 452 551.50Q401 504 365 444Q350 420 336 390.50Q322 361 314.50 328.50Q307 296 308 263Q309 230 324 200Q329 192 325 189.50Q321 187 316 196Q302 221 294.50 253.50Q287 286 287.50 322Q288 358 297.50 394.50Q307 431 326 464Q359 521 404.50 561.50Q450 602 500 630.50Q550 659 601 677Q652 695 697 706.50Q742 718 776.50 724.50Q811 731 828 737Q842 739 851.50 745.50Q861 752 867 759Q871 763 876 762Q881 761 885.50 758Q890 755 892 751Q894 747 892 744M571 186Q487 158 393 113Q299 68 209 10Q119-48 40.50-116Q-38-184-91-257Q-121-299-128-330Q-135-361-123.50-379Q-112-397-85-402Q-58-407-20-397Q40-381 92-354.50Q144-328 189-294.50Q234-261 272.50-223Q311-185 344-147Q369-119 400-75.50Q431-32 462.50 15.50Q494 63 522.50 108.50Q551 154 571 186Z"  horiz-adv-x="664" vert-adv-y="1000"  />

      
      <glyph glyph-name="uni4b" unicode="&#x4b;" d="M371 190Q595 536 604 625Q606 639 601.50 656Q597 673 585 693Q561 743 519 746Q472 748 405.50 722.50Q339 697 254 640Q75 525 38 416Q37 414 37 410Q37 406 36 404Q34 392 37 382.50Q40 373 46 365Q52 357 59 351Q66 345 71 341Q76 338 87.50 339.50Q99 341 116 344Q127 344 127 351Q127 355 114 358Q88 358 75 365Q55 372 55 389Q55 397 59 409Q92 504 262 614Q347 671 412.50 696.50Q478 722 525 718Q582 715 582 660Q582 642 576 627Q543 530 411 295Q352 190 309.50 120.50Q267 51 240 13Q238 11 238 7Q238-2 255-2Q266-2 269 4Q289 37 366 124Q406 170 431.50 194.50Q457 219 469 224Q630-198 782-267Q823-287 867-287Q952-287 1036-209Q1044-200 1044-195Q1044-190 1041-190Q1037-190 1026-199Q958-273 870-273Q829-273 793-251Q741-220 693-155.50Q645-91 598 8Q580 48 556.50 108Q533 168 504 253Q660 387 733 436Q837 508 919 540Q1001 572 1061 568Q1078 565 1078 573Q1078 580 1061 582Q950 590 755 472Q689 430 623.50 382.50Q558 335 492 279Q484 291 475 287Q465 281 459 246Q411 204 385 178Q373 168 369 168Q364 168 364 174Q364 177 365.50 181.50Q367 186 371 190Z"  horiz-adv-x="726" vert-adv-y="1000"  />

      
      <glyph glyph-name="uni4c" unicode="&#x4c;" d="M23 156Q21 171 46 191Q57 199 65 204Q73 209 81 211Q86 212 92 212.50Q98 213 103 213Q154 213 249 174Q255 171 288 156Q321 141 382 112Q442 273 482 360Q529 468 572 541Q615 614 653 654Q664 665 679 676Q694 687 716 700Q743 714 766 722Q789 730 809 730Q869 732 917.50 687Q966 642 993 558Q994 555 995 552.50Q996 550 996 548Q996 539 990 539Q984 539 980 550Q968 582 949 609.50Q930 637 905 661Q856 709 807 713Q744 719 673 639Q596 553 499 341Q485 311 460.50 252Q436 193 400 102Q440 81 479.50 59Q519 37 559 15Q633-24 699.50-55Q766-86 826-110Q994-175 1110-178Q1201-180 1263-132Q1276-122 1288.50-105Q1301-88 1311-67.50Q1321-47 1327.50-23.50Q1334 0 1336 24Q1339 41 1343 41Q1349 41 1349 23Q1349-21 1327-76Q1304-129 1276-150Q1267-155 1252-161.50Q1237-168 1214-174Q1188-182 1162.50-185Q1137-188 1112-189Q997-192 815.50-128Q634-64 386 66Q371 20 334-11Q299-43 261-45Q184-47 105 30Q27 101 23 156M262-32Q336-34 367 74Q184 162 92 176Q54 181 54 154Q54 145 59 132Q87 66 151 16Q211-31 262-32Z"  horiz-adv-x="791" vert-adv-y="1000"  />

      
      <glyph glyph-name="uni4d" unicode="&#x4d;" d="M483 414Q346 143 235 23Q232 19 224.50 13.50Q217 8 206 3Q184-10 175-10Q167-10 167 12Q167 71 275 212Q318 269 364.50 320.50Q411 372 462 421Q484 463 502 506.50Q520 550 535 595Q562 679 562 715Q562 749 546.50 761Q531 773 494 769Q386 757 213 621Q33 480 33 392Q33 376 58 367Q84 359 92 361Q106 363 106 359Q106 355 90 350Q74 344 56 350Q45 354 33 371Q21 388 21 408Q21 470 113 564Q198 649 311 716Q426 785 491 790Q521 791 553 767Q585 742 584 715Q582 673 563 610.50Q544 548 509 466Q636 577 686 577Q706 577 721 560.50Q736 544 734 525Q719 407 595 151Q587 134 602 134Q610 134 616 144Q712 271 880 436Q1089 637 1175 642Q1201 644 1217 613Q1231 585 1231 557Q1231 540 1226 535Q1170 446 1132.50 383.50Q1095 321 1075 285Q974 101 956-18Q955-22 955-25Q955-29 955-32Q955-71 986-64Q1000-60 1019.50-49.50Q1039-39 1064-20Q1111 16 1134 45Q1143 57 1148 57Q1151 57 1151 54Q1151 48 1143 37Q1122 6 1078-31Q1052-54 1029.50-67Q1007-80 987-86Q970-91 955-67Q939-43 939-18Q938 70 1027 258Q1063 332 1105 408Q1147 484 1197 562Q1205 573 1208 582.50Q1211 592 1211 599Q1211 621 1181 621Q1168 621 1153 617Q1064 594 867 400Q694 230 562 56Q552 43 531 43Q515 43 515 53Q515 55 515.50 56.50Q516 58 517 61Q604 226 652.50 342Q701 458 714 527Q718 560 691 560Q652 560 579 503Q517 456 483 414M223 35Q246 61 276.50 103.50Q307 146 344 205Q420 323 442 378Q384 328 315 235Q233 127 206 51Q195 24 208 24Q215 24 223 35Z"  horiz-adv-x="1178" vert-adv-y="1000"  />

      
      <glyph glyph-name="uni4e" unicode="&#x4e;" d="M549 733Q506 735 452 717Q398 699 332 662Q273 627 220.50 585.50Q168 544 121 493Q27 393 24 329Q21 263 69 254Q94 249 129 260Q141 263 141 268Q141 274 129 272Q115 269 99.50 269.50Q84 270 69 273Q43 278 43 305Q43 380 143 483Q189 531 242 571Q295 611 358 648Q483 718 552 714Q625 708 625 625Q625 611 622.50 596Q620 581 615 565Q572 429 329 29Q327 24 325.50 20.50Q324 17 324 14Q324 3 337 3Q351 3 362 19Q377 44 404.50 81Q432 118 473 170Q522 232 571 286Q620 340 671 389Q797 506 886 544Q907 553 922 553Q945 553 945 532Q945 515 934 494L789 200Q773 167 750 111Q727 55 701.50-11.50Q676-78 651-148.50Q626-219 606-280.50Q586-342 573.50-387.50Q561-433 560-449Q560-460 563-472Q566-484 572-494Q578-504 586-511Q594-518 605-518Q632-518 685-476Q734-436 751-408Q760-395 760-391Q760-389 758-387Q755-387 743-399Q639-502 597-502Q581-502 581-472Q581-467 583-461.50Q585-456 583-451Q575-435 585.50-389.50Q596-344 617.50-282Q639-220 668.50-148.50Q698-77 728-9Q758 59 785.50 116Q813 173 831 206Q866 273 902 337.50Q938 402 974 469Q976 473 976.50 479Q977 485 977 491Q977 505 975 518.50Q973 532 959 548Q948 561 938 568.50Q928 576 914 573Q826 559 664 400Q604 342 554.50 288Q505 234 464 182Q455 166 448 166Q444 166 444 170Q444 177 451 188Q531 322 576.50 414.50Q622 507 636 561Q641 584 641 607Q641 660 618 692Q593 731 549 733Z"  horiz-adv-x="908" vert-adv-y="1000"  />

      
      <glyph glyph-name="uni4f" unicode="&#x4f;" d="M53 319Q41 274 41 232Q41 125 122 59Q193 2 296-3Q407-9 530 48Q665 110 755 212Q807 273 838.50 339Q870 405 881 479Q882 484 882.50 490.50Q883 497 883 504Q883 594 825 676Q757 777 639 795Q603 801 564 801Q466 801 375 765Q280 725 220 656Q168 593 168 537Q168 521 172 508Q78 416 53 319M675 712Q661 714 647 715.50Q633 717 618 717Q505 717 373 653Q257 598 186 527Q184 537 184 547Q184 597 232 648Q286 705 376 741Q470 780 568 780Q582 780 597 779Q612 778 626 776Q686 766 732.50 742.50Q779 719 811 678Q867 605 867 510Q867 390 771 272Q727 217 671.50 172.50Q616 128 548 92Q414 22 296 28Q184 33 121 87.50Q58 142 58 235Q58 255 61 275.50Q64 296 69 318Q81 358 113 414Q130 441 145.50 460Q161 479 175 492Q186 460 221 432Q240 418 260 410.50Q280 403 302 402Q318 399 318 409Q318 416 307 416Q266 416 229 444Q212 458 201 473.50Q190 489 188 506Q227 562 353 627Q498 704 618 704Q648 704 674 698Q685 695 685 705Q685 711 675 712Z"  horiz-adv-x="785" vert-adv-y="1000"  />

      
      <glyph glyph-name="uni50" unicode="&#x50;" d="M530 267Q509 256 509 248Q509 242 519 237Q529 232 545 228.50Q561 225 582 223Q603 221 626 221Q738 221 818 254Q935 300 935 410Q935 532 807 643Q759 687 706 722.50Q653 758 593 788Q514 826 435.50 847.50Q357 869 276 873Q181 879 110 836Q48 798 40 743Q37 728 37 710Q37 658 52 609Q70 551 99 525Q104 517 109 517Q109 517 111 519Q111 523 106 531Q61 598 61 704Q61 723 64 743Q84 857 241 857Q313 857 385.50 840Q458 823 535 788Q605 756 668 712.50Q731 669 788 616Q893 515 893 403Q893 312 814 272Q780 254 736.50 244Q693 234 640 234Q583 234 551 250Q534 255 530 267M164-40Q177-45 194-45Q213-45 230.50-41Q248-37 263-28Q373 31 497 274Q572 420 628 579Q631 586 629 605Q627 623 624 623Q625 623 621 619Q568 460 444 245Q308 9 238-17Q218-22 202.50-23.50Q187-25 175-20Q146-8 129 13Q120 22 116 22Q111 22 111 16Q111 10 117 1Q134-25 164-40Z"  horiz-adv-x="768" vert-adv-y="1000"  />

      
      <glyph glyph-name="uni51" unicode="&#x51;" d="M408 557Q410 564 411.50 570Q413 576 415 581Q445 653 553 708Q669 768 807 765Q880 762 937.50 740Q995 718 1038 674Q1120 594 1120 475Q1120 408 1089 340Q1011 168 818 71Q740 33 663.50 12.50Q587-8 509-10Q271-16 271 169Q271 203 277 238Q289 293 324.50 357Q360 421 422 494Q530 624 624 674Q638 682 638 689Q638 693 631 693Q624 693 615 687Q552 653 497 607.50Q442 562 389 503Q277 372 253 250Q251 235 249.50 219.50Q248 204 248 188Q248 87 293 50Q274 60 248 70Q222 80 190 90Q126 112 108 111Q96 110 64 87Q32 60 31 50Q29 39 34 26Q39 13 53-4Q78-39 95-39Q111-39 94-22Q80-10 73 1.50Q66 13 64 21Q59 29 59 40Q59 67 94 67Q99 67 106.50 66Q114 65 122 63Q172 50 240.50 23Q309-4 400-48Q530-113 604-149.50Q678-186 701-196Q867-267 978-267Q993-267 1006.50-266Q1020-265 1034-262Q1051-260 1074-246Q1097-232 1126-208Q1189-157 1195-121Q1198-98 1188-61Q1183-42 1179-30Q1175-18 1170-12Q1165-3 1159 0Q1156 1 1156-3Q1155-6 1155.50-9Q1156-12 1157-17Q1167-51 1167-85Q1167-126 1152-155.50Q1137-185 1108-207Q1061-240 991-242Q947-244 879-224Q811-204 717-163Q680-146 617-115.50Q554-85 464-39Q497-45 533-45Q621-45 709-15.50Q797 14 887 74Q978 134 1033 198.50Q1088 263 1111 334Q1133 403 1133 471Q1133 606 1049 693Q962 786 807 790Q674 796 553 730Q496 701 458 664.50Q420 628 400 586Q394 570 396 557Q398 547 400 547Q403 547 408 557Z"  horiz-adv-x="1066" vert-adv-y="1000"  />

      
      <glyph glyph-name="uni53" unicode="&#x53;" d="M129 202Q41 165 41 105Q41 41 123 13Q178-7 255-7Q307-7 355.50 3Q404 13 450 32Q557 77 557 177Q557 226 529 273Q540 275 590 276Q626 277 626 282Q626 286 615 286Q584 285 559 285Q535 285 518 285Q458 365 412.50 422.50Q367 480 338 516Q289 589 289 637Q289 697 349 739Q468 828 653 828Q687 828 717 825Q747 822 773 814Q816 802 842 770Q870 734 870 684Q870 667 867.50 652.50Q865 638 866 634Q867 629 870 634Q874 638 878 648Q884 663 886.50 677.50Q889 692 889 706Q889 749 864 787Q837 819 801 832Q753 847 680 847Q481 847 333 752Q263 707 263 640Q263 579 321 503Q370 437 410 382.50Q450 328 484 283Q376 274 287.50 253.50Q199 233 129 202M492 269Q526 228 526 178Q526 102 437 57Q392 35 344 23.50Q296 12 243 12Q212 12 183 15Q154 18 125 26Q102 32 84 48Q58 71 58 92Q58 137 143 180Q219 220 338 244Q366 250 404.50 256.50Q443 263 492 269Z"  horiz-adv-x="629" vert-adv-y="1000"  />

      
      <glyph glyph-name="uni54" unicode="&#x54;" d="M1019 678Q987 680 927 689Q867 698 791 711Q760 660 725 598.50Q690 537 654.50 471Q619 405 585 338.50Q551 272 522.50 210.50Q494 149 472.50 96Q451 43 441 5Q436-14 439.50-30Q443-46 448-57Q451-65 446-71.50Q441-78 434-80Q427-82 420.50-77.50Q414-73 414-59Q413-26 430.50 31.50Q448 89 477 160Q506 231 543 310Q580 389 618 464Q656 539 692 605Q728 671 754 717Q683 728 605.50 739Q528 750 452.50 757.50Q377 765 308 768Q239 771 186 765Q166 763 139 756.50Q112 750 90.50 736.50Q69 723 58 701Q47 679 61 646Q77 606 103.50 565Q130 524 153 496Q162 484 165 478.50Q168 473 166 472.50Q164 472 158.50 475.50Q153 479 147 485Q112 520 88 551Q64 582 44 619Q25 653 34.50 682Q44 711 68 732.50Q92 754 122.50 768Q153 782 177 787Q217 795 285 794Q353 793 434.50 787Q516 781 604.50 772Q693 763 774 754Q782 765 787.50 773.50Q793 782 798 787Q802 791 800.50 795.50Q799 800 795 799Q790 798 783 796.50Q776 795 770 792Q759 788 759 793Q759 798 768 803Q780 813 801 826.50Q822 840 837 843Q851 845 857.50 834Q864 823 856 811Q838 782 815 750Q884 742 940 737Q996 732 1030 732Q1047 732 1052.50 741Q1058 750 1056 759Q1054 769 1052.50 776Q1051 783 1046 794Q1038 814 1043.50 817Q1049 820 1060 802Q1063 797 1067.50 788Q1072 779 1076 768.50Q1080 758 1080.50 746Q1081 734 1077 724Q1073 719 1068.50 710.50Q1064 702 1056 695Q1046 687 1038 681.50Q1030 676 1019 678Z"  horiz-adv-x="714" vert-adv-y="1000"  />

      
      <glyph glyph-name="uni55" unicode="&#x55;" d="M829 1Q839 38 865.50 99.50Q892 161 937 250Q979 331 1010 385.50Q1041 440 1063 469Q1067 480 1069.50 490Q1072 500 1074 508Q1076 518 1070 525.50Q1064 533 1055 533Q1046 533 1042 527Q1022 506 1008 489Q994 472 980 461Q915 404 849.50 348.50Q784 293 718 239Q614 152 540.50 100.50Q467 49 424 30Q409 22 394 22Q366 22 366 50Q366 58 369 67Q376 100 397 146Q418 192 452 251Q508 348 536 398Q564 448 566 452Q626 567 629 643Q630 681 593 723Q554 767 517 768Q375 774 231 682Q98 598 46 490Q29 455 29 417Q29 391 36 369Q42 350 59 331Q76 312 103 291Q110 287 114 287Q120 287 120 291Q120 297 112 301Q50 342 50 406Q50 426 54 444Q58 462 67 479Q98 534 146 582Q194 630 261 671Q398 755 517 746Q560 743 584 713Q606 685 606 656Q606 625 590 579.50Q574 534 540 476Q508 422 476.50 370Q445 318 413 265Q339 141 328 69Q326 55 330 42Q334 29 342.50 19Q351 9 362.50 3.50Q374-2 386-2Q392-2 398 0Q437 12 512 63Q587 114 700 204Q871 342 966 431Q973 439 979 439Q989 439 980 413Q979 411 960 369Q941 327 903 242Q832 87 817 29Q810 1 810-36Q812-53 821-53Q831-53 833-39Q833-8 829 1Z"  horiz-adv-x="961" vert-adv-y="1000"  />

      
      <glyph glyph-name="uni56" unicode="&#x56;" d="M340 16Q393 79 444.50 141.50Q496 204 549 266Q624 354 690 420.50Q756 487 813 533Q966 660 1070 660Q1079 660 1088 659Q1097 658 1107 656Q1119 653 1119 658Q1119 660 1107 667Q1083 674 1056 674Q913 674 685 446Q616 376 527 271.50Q438 167 329 26Q317 10 308 10Q299 10 296 28Q294 42 296 56Q308 129 413 381Q461 499 486.50 575.50Q512 652 513 687Q514 729 482 758Q452 786 411 783Q294 768 173 648Q50 526 36 407Q34 388 48 363Q56 350 62.50 343.50Q69 337 75 335Q84 327 94 327Q109 330 109 339Q109 345 99 346Q91 348 85 348.50Q79 349 76 351Q54 364 57 404Q66 499 177 616Q297 742 422 760Q427 761 432 761Q437 761 441 761Q485 761 485 717L485 703Q484 698 484 696Q484 694 484 692Q481 624 376 383Q322 259 294 177.50Q266 96 263 54Q263 45 266 35Q269 25 274.50 16.50Q280 8 288 2.50Q296-3 306-3Q324-3 340 16Z"  horiz-adv-x="676" vert-adv-y="1000"  />

      
      <glyph glyph-name="uni57" unicode="&#x57;" d="M385 1Q403 24 417.50 45Q432 66 444 80Q556 212 641 310Q726 408 785 476Q792 483 798 483Q804 483 804 474Q804 465 800 458Q703 273 703 116Q703 105 703 96Q703 88 704 79Q707 39 734 14Q761-11 799-11Q804-11 809.50-10.50Q815-10 821-9Q889 6 1002 111Q1059 165 1106.50 222Q1154 279 1193 343Q1283 487 1283 586Q1283 662 1252 697Q1243 708 1237 708Q1234 708 1234 704Q1234 698 1241 691Q1262 657 1261 586Q1259 534 1236 473Q1213 412 1167 340Q1090 218 981 117Q872 15 817 8Q813 7 809 7Q805 7 801 7Q768 7 747 27.50Q726 48 727 80Q728 179 760 277Q774 320 797.50 372.50Q821 425 853 486Q855 490 855 496Q855 510 846 526Q837 542 826 546Q818 548 810 531Q795 508 795 506Q691 387 606.50 291Q522 195 457 120Q448 111 442 110Q436 108 436 116Q436 119 441 131Q485 203 522.50 275Q560 347 592 422Q673 609 670 698Q668 744 626 774Q582 807 531 801Q391 781 216 658Q40 533 18 437Q16 432 16 422Q16 401 25 379.50Q34 358 46 352Q71 339 106 352Q118 354 118 358Q118 360 107 360Q64 360 48 373Q27 392 42 437Q79 543 268 662Q361 719 434.50 748.50Q508 778 565 778Q643 778 651 698Q665 574 346 22Q344 16 344 12Q344-6 370-6Q380-6 385 1Z"  horiz-adv-x="1094" vert-adv-y="1000"  />

      
      <glyph glyph-name="uni58" unicode="&#x58;" d="M0-118Q11-80 29-43Q47-6 75 32Q127 104 249 201Q304 246 362 285.50Q420 325 483 362Q483 361 482.50 350Q482 339 482 319L482 265Q482 85 530 40Q542 28 557 18Q572 8 587.50 0.50Q603-7 617-11Q631-15 640-13Q702-4 805 67Q816 72 810 78Q806 84 796 78Q751 48 711.50 32.50Q672 17 637 14Q578 11 547 55Q516 99 516 237Q516 295 522 382Q571 410 625.50 442.50Q680 475 740 515Q904 620 948 672Q952 676 952 685Q952 723 937 723Q935 723 933 721Q916 704 902 692.50Q888 681 879 676Q883 655 869 642Q800 586 714.50 529.50Q629 473 526 414Q534 500 536.50 564Q539 628 537 672Q537 683 516 701Q496 719 481 719Q453 721 421.50 706.50Q390 692 352 664Q317 636 290 606.50Q263 577 248 546Q247 545 245 538Q243 532 245 528Q247 526 250 528Q252 529 253.50 531.50Q255 534 257 537Q348 665 449 689Q490 698 495 659Q496 650 496.50 640.50Q497 631 497 618Q497 620 493.50 563.50Q490 507 483 391Q424 356 365.50 317Q307 278 246 230Q177 176 128.50 130Q80 84 54 46Q-4-34-13-119Q-15-139-11-139Q-5-139 0-118Z"  horiz-adv-x="770" vert-adv-y="1000"  />

      
      <glyph glyph-name="uni59" unicode="&#x59;" d="M789 50Q461-1 331-101Q282-140 282-189Q282-229 316-256Q352-286 413-287Q486-289 582-234Q643-200 704-124Q725-98 751.50-60.50Q778-23 810 30Q827 35 839.50 39Q852 43 860 44Q866 45 873 51Q880 57 889 68Q908 93 908 102Q908 105 905 112.50Q902 120 897.50 128Q893 136 887 144.50Q881 153 876 158Q911 236 942 303Q973 370 1000 430Q1011 441 1019 449Q1027 457 1035 462Q1045 472 1036 493Q1034 495 1032 495Q1013 495 1003 480Q992 463 982.50 449Q973 435 965 424L963 419Q914 368 844.50 312Q775 256 684 193Q487 57 367 24Q343 18 334 18Q320 18 320 32Q320 38 322.50 47.50Q325 57 331 69Q349 113 432 233Q483 305 516 355.50Q549 406 566 435Q601 492 617.50 537.50Q634 583 634 617Q634 668 584 716Q535 763 476 762Q355 759 213 664Q78 574 40 474Q29 448 29 411Q29 376 40 353Q58 310 125 298Q144 295 144 301Q144 307 130 308Q121 309 110.50 313.50Q100 318 89 326Q63 343 55 361Q47 379 47 402Q47 430 63 468Q109 568 254 658Q325 701 384.50 721.50Q444 742 493 737Q603 729 603 640Q603 567 536 452Q523 431 490 380Q457 329 403 249Q321 128 304 73Q300 64 300 53Q300 40 304.50 28.50Q309 17 316.50 9Q324 1 332.50-3Q341-7 350-4Q412 13 491 54Q570 95 667 161Q816 263 943 375Q948 380 949 376Q950 375 947 365Q928 324 908.50 283.50Q889 243 869 202Q808 75 789 50M776 24Q744-26 722.50-58Q701-90 690-106Q634-178 573-219Q494-271 411-272Q297-274 297-199Q297-154 343-118Q415-61 574-19Q628-4 678 6.50Q728 17 776 24M870 147Q889 121 888 100Q887 80 866 68Q852 64 842 61Q832 58 824 57Q839 86 850.50 108Q862 130 870 147Z"  horiz-adv-x="927" vert-adv-y="1000"  />

      
      <glyph glyph-name="uni30" unicode="&#x30;" d="M205 442Q75 330 33 186Q27 167 24.50 149.50Q22 132 22 116Q22 53 57.50 20Q93-13 150-13Q163-13 176.50-11Q190-9 204-6Q259 9 307.50 38.50Q356 68 400 116Q482 203 513 304Q520 330 524 353Q528 376 528 396Q528 463 492 496Q456 529 397 524Q348 519 305 495Q292 490 276.50 483Q261 476 246.50 468Q232 460 220.50 453Q209 446 205 442M392 498Q498 499 498 382Q498 341 485 301Q453 196 372 109Q277 7 179 7Q135 7 108 37Q92 55 84 78.50Q76 102 76 134Q76 147 77.50 160Q79 173 81 187Q86 214 98.50 244Q111 274 130 306Q170 377 227 425Q313 498 392 498Z"  horiz-adv-x="541" vert-adv-y="1000"  />

      
      <glyph glyph-name="uni31" unicode="&#x31;" d="M196-2Q268-2 297-1Q326 0 326 11Q326 20 306 18Q276 15 187 29Q148 34 148 54Q148 58 150 63Q152 68 154 74Q171 108 205 158.50Q239 209 290 276Q340 342 374 381.50Q408 421 426 435Q428 446 429.50 454.50Q431 463 435 465Q452 476 464 483Q476 490 485 496Q492 500 492 510Q492 522 480 522Q475 522 469 519Q424 493 350.50 460.50Q277 428 172 389Q157 385 154 378Q152 372 162 372Q166 372 177 375Q217 388 257 401Q297 414 338 430Q344 432 348 432Q355 432 355 425Q355 418 351 413Q266 291 204.50 196.50Q143 102 105 33Q57 31 24.50 28Q-8 25-28 23Q-46 21-46 1Q-46-10-28-8Q21-2 164-2L196-2Z"  horiz-adv-x="381" vert-adv-y="1000"  />

      
      <glyph glyph-name="uni32" unicode="&#x32;" d="M395 0Q418-2 418 11Q418 25 394 25Q144 25 144 45Q144 52 157 56Q215 77 272 108Q329 139 386 184Q528 292 528 387Q528 435 499 470Q482 490 456.50 502.50Q431 515 397 517Q306 525 216 475Q195 465 195 444Q195 439 200 442Q273 483 340 483Q351 483 361.50 482Q372 481 382 479Q428 469 457 429Q482 393 476 361Q461 269 350 182Q275 124 186 82Q116 51 37 34Q1 28 1 2Q1-11 19-9Q170 3 300 3Q356 3 395 0Z"  horiz-adv-x="497" vert-adv-y="1000"  />

      
      <glyph glyph-name="uni33" unicode="&#x33;" d="M410 105Q425 132 425 161Q425 184 416 205Q407 226 391 241.50Q375 257 354 267Q333 277 308 279Q299 280 299 286Q299 292 307 295Q445 346 493 420Q506 439 506 464Q506 525 427 525Q335 525 269 486Q253 477 253 461Q253 453 260 457Q332 491 403 491Q447 491 447 448Q447 425 433 403Q421 382 398 363Q375 344 342 324Q271 283 213 283Q204 283 196.50 276.50Q189 270 189 264Q189 260 196 260Q286 265 332 229Q370 200 370 150Q370 139 367.50 128.50Q365 118 361 107Q327 29 210-24Q114-68 40-68Q-17-68-18-37Q-20-15-34-15Q-44-15-51-26Q-58-37-58-48Q-58-84 41-81Q128-80 237-34Q303-6 346.50 28Q390 62 410 105Z"  horiz-adv-x="475" vert-adv-y="1000"  />

      
      <glyph glyph-name="uni34" unicode="&#x34;" d="M239-90Q244-46 295 34Q300 43 317.50 67Q335 91 362 130Q372 129 393.50 128.50Q415 128 449 128Q458 128 469 136.50Q480 145 480 150Q480 153 475 152Q462 149 377 154Q388 172 417.50 212Q447 252 495 315Q544 377 581.50 424.50Q619 472 648 505Q649 506 649 508Q649 513 638 513Q597 513 579 490Q504 389 443 306Q382 223 334 157Q333 157 318 158Q303 159 274 161Q215 164 173 164Q118 164 85 158Q110 190 248 299Q320 357 374.50 396.50Q429 436 465 458Q473 462 473 469Q473 481 461 481Q457 481 455 480Q417 457 366.50 418.50Q316 380 250 326Q184 272 138 230Q92 188 65 157Q59 153 54.50 150.50Q50 148 45 146Q27 137 24 132Q18 124 18 113Q18 97 26 97Q30 97 41 111Q52 126 63 128Q83 131 118 132.50Q153 134 206 133Q289 133 319 130Q273 58 249.50 4.50Q226-49 223-87Q221-102 231-102Q237-102 239-90Z"  horiz-adv-x="555" vert-adv-y="1000"  />

      
      <glyph glyph-name="uni35" unicode="&#x35;" d="M406 77Q435 111 435 151Q435 191 405 218Q388 234 362 248.50Q336 263 301 278Q293 282 267 292Q241 302 195 319Q180 323 191 342Q226 401 298 468Q367 470 439 471.50Q511 473 586 473Q609 473 609 487Q609 493 599 493Q532 493 480 493Q429 493 394 494Q387 496 382 499.50Q377 503 374 505Q355 513 343.50 516Q332 519 327 519Q312 519 305 509Q277 476 244 433.50Q211 391 173 337Q150 305 150 293Q150 283 161 279Q315 240 370 186Q392 164 392 132Q392 73 342 41Q283 5 190 5Q92 5 55 47Q52 52 43 52Q30 52 18.50 43Q7 34 7 23Q7 2 57-13Q105-28 159-28Q315-28 406 77Z"  horiz-adv-x="480" vert-adv-y="1000"  />

      
      <glyph glyph-name="uni36" unicode="&#x36;" d="M419 95Q459 150 459 209Q459 281 392 302Q382 307 359 307Q277 307 180 268Q215 321 252.50 366Q290 411 334 450Q443 548 544 566Q563 570 563 575Q563 580 552 580Q550 580 546 580Q543 580 540 579Q370 549 199 363Q69 223 69 94Q69 49 89 21.50Q109-6 150-20Q161-23 173.50-25.50Q186-28 199-28Q262-28 330 13Q359 31 381 51.50Q403 72 419 95M370 269Q408 251 408 185Q408 167 404 148.50Q400 130 391 112Q365 59 308 24Q249-11 198-11Q162-11 140 8Q112 32 112 86Q112 181 172 253Q202 267 235.50 273.50Q269 280 306 280Q347 280 370 269Z"  horiz-adv-x="475" vert-adv-y="1000"  />

      
      <glyph glyph-name="uni37" unicode="&#x37;" d="M53-92Q47-65 96 5Q145 75 255 184L552 474Q563 485 563 501Q563 529 542 525Q531 520 523.50 516Q516 512 512 509Q497 506 492 507Q403 505 332.50 503.50Q262 502 210 501Q194 498 169 486Q139 472 139 460Q139 452 147 452Q154 452 159 457Q178 464 191 468.50Q204 473 213 474Q235 477 321 476Q418 475 451 470Q470 467 470 458Q470 453 466 450Q32-10 20-90Q17-113 33-113Q41-113 48-106.50Q55-100 53-92Z"  horiz-adv-x="505" vert-adv-y="1000"  />

      
      <glyph glyph-name="uni38" unicode="&#x38;" d="M481 157Q479 180 469 209.50Q459 239 442 275Q427 308 391 371Q654 524 654 554Q654 558 651 558Q646 558 631 546Q614 530 585 509Q556 488 514 462Q472 436 439 418Q406 400 382 389Q364 428 364 461Q364 513 410 548Q424 559 444.50 563.50Q465 568 482 568Q512 568 533 553Q539 549 545.50 544.50Q552 540 558 536Q560 535 562.50 534Q565 533 568 533Q577 533 575 553Q577 567 552 577Q530 589 508 587Q484 586 460 581.50Q436 577 410 566Q355 546 329 514Q312 495 312 464Q312 424 341 369Q281 333 239.50 306.50Q198 280 173 263Q122 227 91 193Q60 159 47 129Q36 99 36 71Q36 40 47.50 16.50Q59-7 79-23.50Q99-40 126-48.50Q153-57 184-57Q281-57 382 12Q485 85 481 157M84 122Q139 233 349 348Q371 313 384.50 291Q398 269 403 260Q419 229 426 202.50Q433 176 433 152Q433 54 327-6Q237-55 176-45Q70-27 70 65Q70 96 84 122Z"  horiz-adv-x="584" vert-adv-y="1000"  />

      
      <glyph glyph-name="uni39" unicode="&#x39;" d="M165 486Q122 427 122 364Q122 295 188 274Q197 272 208.50 270Q220 268 234 268Q328 268 403 305Q338 194 240 113Q134 26 31 8Q11 3 11-3Q11-8 22-8Q29-8 33-7Q122 9 208.50 63.50Q295 118 383 212Q522 366 522 487Q522 577 440 604Q414 612 389 612Q327 612 256 569Q227 550 204 529.50Q181 509 165 486M411 319Q353 290 279 290Q234 290 209 305Q174 326 174 383Q174 403 179 424.50Q184 446 195 469Q207 496 228.50 518.50Q250 541 279 560Q337 595 388 595Q425 595 448 575Q476 549 476 496Q476 398 411 319Z"  horiz-adv-x="563" vert-adv-y="1000"  />

      
      <glyph glyph-name="uni3a" unicode="&#x3a;" d="M233 202Q233 255 224 264Q222 266 219 266Q209 266 193 258.50Q177 251 174 245Q171 243 171.50 235.50Q172 228 174 216Q178 193 181 188Q184 183 190 183Q203 183 218 190Q233 197 233 202M124 18Q124 71 116 79Q112 81 110 81Q105 81 98 79Q91 77 84 74Q77 71 71.50 67.50Q66 64 65 61Q62 57 65 31Q69 8 72 3.50Q75-1 81-1Q94-1 109 5.50Q124 12 124 18Z"  horiz-adv-x="230" vert-adv-y="1000"  />

      
      <glyph glyph-name="uni3b" unicode="&#x3b;" d="M22-114Q115-36 133 18Q134 20 134 26Q134 42 128 60Q122 78 114 80Q107 82 87 67Q67 52 71 45Q78 31 81.50 21Q85 11 84 3Q76-58 13-102Q9-106 9-109Q9-117 16-117Q20-117 22-114M233 202Q233 255 224 264Q222 266 219 266Q209 266 193 258.50Q177 251 174 245Q171 243 171.50 235.50Q172 228 174 216Q178 193 181 188Q184 183 190 183Q203 183 218 190Q233 197 233 202Z"  horiz-adv-x="227" vert-adv-y="1000"  />

      
      <glyph glyph-name="uni3f" unicode="&#x3f;" d="M211 119Q211 121 208.50 126.50Q206 132 203 139.50Q200 147 198.50 155Q197 163 199 170Q204 184 216 187Q237 194 272 206.50Q307 219 358 241Q459 282 497 307Q596 362 596 466Q596 485 593.50 504Q591 523 584 543Q576 571 560.50 595Q545 619 525 640Q473 690 409 690Q400 690 391 689Q382 688 372 685Q323 674 286 625Q284 620 282 616.50Q280 613 280 609Q280 605 284 605Q289 605 297 616Q322 652 374 652Q399 652 425 643Q451 634 473 618Q495 602 512 578.50Q529 555 538 527Q544 509 546.50 492.50Q549 476 549 461Q549 355 398 276Q357 255 298.50 232Q240 209 159 186Q153 184 153 177Q153 170 157 160Q161 150 172 136Q193 112 204 112Q211 112 211 119M186 8Q187 11 187.50 19Q188 27 186 41Q183 66 178.50 69.50Q174 73 169 73Q163 73 145 65Q129 57 125 51Q121 45 124 22Q128 0 132-4.50Q136-9 144-9Q155-9 169-3Q183 3 186 8Z"  horiz-adv-x="429" vert-adv-y="1000"  />

      
      <glyph glyph-name="uni43" unicode="&#x43;" d="M341-4Q416-6 495 11.50Q574 29 658 64Q815 130 906 223Q913 230 913 234Q913 239 909 239Q904 239 898 232Q851 189 791 153.50Q731 118 656 87Q575 55 496.50 37.50Q418 20 342 18Q210 15 136 68Q73 114 73 188Q73 213 80 237Q126 388 335 546Q533 693 702 725Q716 727 728.50 728Q741 729 752 729Q833 729 851 689Q808 643 765 573Q708 483 708 427Q708 423 724 420Q738 419 741 420Q798 452 839 502Q875 542 888 576.50Q901 611 901 650Q901 690 887 707Q900 723 900 726Q900 732 895 733Q889 735 888 730L875 717Q842 747 766 747Q739 747 712 744Q605 731 446 645Q278 554 166 440Q37 309 37 200Q37 108 133 51Q219-2 341-4M734 447Q747 499 782 566Q800 601 819 627Q838 653 857 673Q867 656 867 628Q867 612 863.50 597Q860 582 854 566Q820 487 745 438Q740 435 736 438Q733 440 734 447Z"  horiz-adv-x="939" vert-adv-y="1000"  />

      
      <glyph glyph-name="uni21" unicode="&#x21;" d="M121 141Q136 168 162.50 218Q189 268 227 342Q254 396 276.50 436Q299 476 316 505Q317 507 321.50 507.50Q326 508 330.50 509Q335 510 339.50 511Q344 512 345 515Q351 524 348 550Q345 576 339 577Q329 581 311 576Q293 571 289 562Q262 487 215.50 384.50Q169 282 103 151Q102 148 102 144Q102 133 111 133Q117 133 121 141M82 18Q82 71 74 79Q72 81 68 81Q58 81 42.50 73.50Q27 66 23 61Q20 57 23 31Q28 8 30.50 3.50Q33-1 40-1Q52-1 67 5.50Q82 12 82 18Z"  horiz-adv-x="217" vert-adv-y="1000"  />

      
      <glyph glyph-name="uni22" unicode="&#x22;" d="M218 408Q282 498 320 546Q323 550 323 553Q323 572 300 572Q290 572 286 564L206 415Q205 414 205 410Q205 407 210 405Q215 403 218 408M323 405Q355 450 380.50 484Q406 518 426 542Q429 548 429 550Q429 569 406 569Q397 569 392 561L311 411Q310 410 310 407Q310 403 316 402Q319 400 323 405Z"  horiz-adv-x="288" vert-adv-y="1000"  />

      
      <glyph glyph-name="uni23" unicode="&#x23;" d="M29 43Q22 32 22 26Q22 23 24 23Q29 23 43 43Q71 87 93 119.50Q115 152 131 175L242 175Q188 88 161 43Q154 32 154 26Q154 23 156 23Q163 23 175 43Q204 88 226 120.50Q248 153 263 175Q273 175 285 175.50Q297 176 311 176L346 176Q351 176 361 182Q371 188 371 193Q371 198 355 198L277 198Q303 237 322 265.50Q341 294 354 313Q363 313 373.50 314Q384 315 396 315L428 315Q432 315 442 321Q452 327 452 331Q452 337 437 337L370 337Q412 395 438 431Q464 467 475 482Q488 499 472 499Q462 499 455 494Q417 442 388.50 403Q360 364 343 337L238 337Q285 403 311 438.50Q337 474 343 482Q356 499 340 499Q330 499 323 494Q297 460 269.50 421Q242 382 211 337L116 337Q110 337 98 329.50Q86 322 86 318Q86 313 98 313Q102 313 112.50 314Q123 315 140 315L197 315Q172 276 154 247Q136 218 123 198L35 198Q32 198 27 196Q22 194 17 191Q12 188 8 184.50Q4 181 4 179Q4 175 16 175Q20 175 29.50 175.50Q39 176 55 176L110 176Q84 132 63.50 99Q43 66 29 43M222 313Q231 313 244.50 314Q258 315 276 315L328 315Q300 272 281.50 243Q263 214 254 198L145 198Q184 256 203 284.50Q222 313 222 313Z"  horiz-adv-x="485" vert-adv-y="1000"  />

      
      <glyph glyph-name="uni24" unicode="&#x24;" d="M153 46Q150 42 143 42Q89 46 51 71Q50 73 46 73Q38 73 29.50 67Q21 61 21 53Q21 29 125 14Q130 13 129 10Q120-5 111-19Q102-33 91-47Q88-53 88-55Q88-59 96-59Q107-59 111-52Q137-12 148 7Q155 12 153 12Q268 12 342 63Q389 94 389 141Q389 160 382 174Q369 198 310 254Q305 259 309 264Q338 314 371 367Q404 420 442 477Q448 483 450 481Q509 485 520 460Q523 452 531 452Q543 452 543 465Q543 471 540 476Q520 504 464 504L461 504Q460 504 461 505Q461 506 462 507Q473 523 481 535Q489 547 495 557Q496 558 496 559Q496 560 497 561Q497 565 491 565Q483 565 475 557Q455 527 440 507Q436 503 433 503Q309 478 249 426Q208 392 208 348Q208 294 269 241Q275 238 268 231Q233 173 204.50 127Q176 81 153 46M284 220Q287 225 290 222Q305 207 315 195Q325 183 331 173Q349 141 349 121Q349 95 324 76Q313 67 296 59Q279 51 259 46Q239 41 217.50 39.50Q196 38 177 40Q173 40 174 44Q201 88 228 132Q255 176 284 220M296 278Q293 273 289 277Q251 320 251 359Q251 373 255.50 385.50Q260 398 271 409Q309 451 411 475Q417 476 418 475Q418 475 417 471Q369 395 339.50 347Q310 299 296 278Z"  horiz-adv-x="464" vert-adv-y="1000"  />

      
      <glyph glyph-name="uni25" unicode="&#x25;" d="M353 510Q337 524 320 524Q304 524 286 506Q257 506 254 498Q250 484 251 480Q249 475 237 460Q225 445 205 419Q176 384 166 349Q161 326 161 312Q161 252 220 252Q232 252 246 255Q273 263 296.50 277.50Q320 292 343 315Q364 335 377 358Q390 381 398 406Q405 442 402 472Q400 478 405.50 481.50Q411 485 416 488Q420 496 635 496Q650 496 649 495Q568 429 491 358.50Q414 288 339 210Q169 33 162-25Q162-36 162.50-41.50Q163-47 164-50Q170-50 175-29Q193 42 392 235Q480 321 563 393Q646 465 726 525Q738 532 738 541Q738 549 729 549Q725 549 718.50 545.50Q712 542 702 537Q688 529 681 524.50Q674 520 673 519Q644 505 635 505Q564 506 500 506Q436 506 377 507Q376 507 372 507Q368 507 364 507.50Q360 508 356.50 509Q353 510 353 510M549 241Q510 228 475 184Q446 146 432 100Q427 80 427 65Q427 3 488 3Q502 3 515 7Q568 21 610 66Q649 106 664 157Q672 180 672 202Q672 270 608 264Q581 261 549 241M603 246Q653 249 653 194Q653 175 647 156Q630 100 593 64Q556 28 515 20Q492 15 473.50 30.50Q455 46 455 79Q455 85 456 91Q457 97 458 102Q468 162 527 213Q565 245 603 246M339 490Q387 491 387 443Q387 426 381 405Q364 349 326.50 312.50Q289 276 249 268Q226 263 207.50 279Q189 295 189 328Q189 333 189.50 339Q190 345 191 351Q203 411 261 462Q277 476 296 482Q315 488 339 490Z"  horiz-adv-x="686" vert-adv-y="1000"  />

      
      <glyph glyph-name="uni26" unicode="&#x26;" d="M574 300Q595 300 611.50 299.50Q628 299 640 298Q685 292 685 255Q685 206 631 151Q623 141 623 136Q623 135 625 135Q629 135 638 144Q686 189 696 213Q701 223 701 237Q701 257 690 275Q679 293 664 305Q670 306 668 307Q666 308 661 309.50Q656 311 650 312.50Q644 314 642 316Q621 320 604 320.50Q587 321 560 319Q507 320 445 320Q383 320 319 320Q255 320 194.50 319.50Q134 319 85 319Q121 371 168 399.50Q215 428 262 440Q309 452 351 452Q393 452 417 448Q427 447 434.50 451Q442 455 445 460.50Q448 466 445.50 471.50Q443 477 433 480Q412 485 390.50 497Q369 509 351.50 528Q334 547 323.50 573Q313 599 315 632Q317 668 334.50 691.50Q352 715 376 728Q400 741 425 743Q450 745 468 738Q489 731 501.50 714Q514 697 516 676Q518 663 524.50 662.50Q531 662 536 669Q541 676 543.50 688Q546 700 540 712Q532 732 512.50 749Q493 766 465 767Q439 768 409 759.50Q379 751 352.50 734Q326 717 305.50 692.50Q285 668 277 637Q271 611 275 590Q279 569 287.50 553Q296 537 306.50 525.50Q317 514 323 507Q327 504 323.50 496.50Q320 489 311 486Q276 478 239.50 462Q203 446 168.50 424Q134 402 104 375.50Q74 349 52 319Q18 318-5 318Q-29 318-37 318Q-57 317-63.50 314.50Q-70 312-74 298Q-76 292-72 285Q-68 278-62 273Q-56 268-49.50 265.50Q-43 263-39 268Q-33 275-27.50 281.50Q-22 288-14 291Q-10 293 3 293.50Q16 294 36 295Q4 243-5 191Q-14 139-1.50 96.50Q11 54 43.50 26.50Q76-1 127-4Q135-4 144-4Q153-4 162-3Q166-31 173.50-55.50Q181-80 192.50-98Q204-116 219.50-126Q235-136 255-134Q289-131 317-104Q345-77 366-44Q372-36 377.50-27.50Q383-19 387-10Q395 5 402 19.50Q409 34 415 46Q432 79 450 115.50Q468 152 484.50 185.50Q501 219 514.50 248.50Q528 278 537 298L574 300M180 190Q166 161 159.50 118Q153 75 157 30Q152 31 146 31Q141 31 136 32Q101 36 77 59Q53 82 43 116.50Q33 151 37 193.50Q41 236 62 278Q64 283 66.50 287.50Q69 292 71 297Q105 298 147.50 298.50Q190 299 233 299Q277 299 319 299Q361 299 395 299Q429 299 452 299Q476 299 482 299Q493 299 494.50 294.50Q496 290 491 278Q485 264 476.50 248.50Q468 233 459 218.50Q450 204 442 192.50Q434 181 429 176Q412 158 387 133.50Q362 109 329.50 86.50Q297 64 257.50 47.50Q218 31 173 30Q171 68 175 109.50Q179 151 188 186L180 190M375 9Q363-14 349-37Q335-60 319-78Q303-96 286.50-108Q270-120 253-121Q236-122 222.50-113Q209-104 199.50-87.50Q190-71 184-49Q178-27 175-1Q211 5 241.50 14.50Q272 24 304 43.50Q336 63 371.50 95.50Q407 128 454 180L375 9M180 190L188 187Q190 200 188 201.50Q186 203 180 190Z"  horiz-adv-x="646" vert-adv-y="1000"  />

      
      <glyph glyph-name="uni27" unicode="&#x27;" d="M218 408Q282 498 320 546Q323 550 323 553Q323 572 300 572Q290 572 286 564L206 415Q205 414 205 410Q205 407 210 405Q215 403 218 408Z"  horiz-adv-x="178" vert-adv-y="1000"  />

      
      <glyph glyph-name="uni28" unicode="&#x28;" d="M562 595Q376 550 250 384Q123 218 123 26Q123-34 140-96Q143-109 154-109Q165-109 175.50-99.50Q186-90 188-77Q189-68 180.50-62.50Q172-57 172-55Q166-31 162.50-6Q159 19 159 45Q159 219 275 380Q395 545 566 581Q581 584 581 591Q581 596 571 596Q569 596 566 596Q564 596 562 595Z"  horiz-adv-x="409" vert-adv-y="1000"  />

      
      <glyph glyph-name="uni29" unicode="&#x29;" d="M-61-99Q123-54 251 111Q377 277 377 469Q377 534 361 592Q358 605 346 605Q335 605 325 595.50Q315 586 312 573Q311 564 320 558.50Q329 553 329 551Q341 503 341 450Q341 362 313 279Q285 196 226 116Q105-49-65-85Q-79-88-79-95Q-79-100-69-100Q-64-100-61-99Z"  horiz-adv-x="409" vert-adv-y="1000"  />

      
      <glyph glyph-name="uni2a" unicode="&#x2a;" d="M255 580Q241 551 228 524.50Q215 498 200 466Q232 477 268 493Q304 509 338 521Q346 526 347.50 520.50Q349 515 344 512Q310 494 269.50 475.50Q229 457 199 444Q222 424 240.50 408.50Q259 393 274 378Q285 368 281 363.50Q277 359 272 362Q250 379 230.50 394Q211 409 184 431Q176 414 166 390.50Q156 367 148 345.50Q140 324 136.50 308.50Q133 293 139 293Q142 293 138.50 290.50Q135 288 131 286Q120 283 120.50 295.50Q121 308 127 329.50Q133 351 142 377Q151 403 158 426Q129 409 97.50 394Q66 379 42 361Q40 360 41 356.50Q42 353 36 352Q22 350 18.50 361.50Q15 373 29 384Q38 391 53 399Q68 407 86.50 415Q105 423 124.50 431.50Q144 440 161 449Q142 460 125.50 472Q109 484 88 494Q87 494 84 491.50Q81 489 78 494Q73 498 73 504Q73 511 77 515.50Q81 520 87.50 522Q94 524 103 520Q122 512 139 496Q156 480 175 465Q186 491 197 514.50Q208 538 216 559Q219 566 219 574Q219 582 229 587Q247 598 252 591.50Q257 585 255 580Z"  horiz-adv-x="363" vert-adv-y="1000"  />

      
      <glyph glyph-name="uni2c" unicode="&#x2c;" d="M22-114Q115-36 133 18Q134 20 134 26Q134 42 128 60Q122 78 114 80Q107 82 87 67Q67 52 71 45Q78 31 81.50 21Q85 11 84 3Q76-58 13-102Q9-106 9-109Q9-117 16-117Q20-117 22-114Z"  horiz-adv-x="178" vert-adv-y="1000"  />

      
      <glyph glyph-name="uni2d" unicode="&#x2d;" d="M37 166L184 166Q210 166 210 183Q210 193 193 193L52 193Q20 193 20 175Q20 166 37 166Z"  horiz-adv-x="229" vert-adv-y="1000"  />

      
      <glyph glyph-name="uni2e" unicode="&#x2e;" d="M124 18Q124 71 116 79Q112 81 110 81Q105 81 98 79Q91 77 84 74Q77 71 71.50 67.50Q66 64 65 61Q62 57 65 31Q69 8 72 3.50Q75-1 81-1Q94-1 109 5.50Q124 12 124 18Z"  horiz-adv-x="178" vert-adv-y="1000"  />

      
      <glyph glyph-name="uni2f" unicode="&#x2f;" d="M-42-78Q-33-42 34.50 36Q102 114 227 234Q340 343 436.50 427Q533 511 614 571Q626 580 626 587Q626 595 617 595Q608 595 597 587Q519 530 422.50 444Q326 358 208 243Q-48-8-55-75Q-55-93-53-99Q-47-99-42-78Z"  horiz-adv-x="409" vert-adv-y="1000"  />

      
      <glyph glyph-name="uni60" unicode="&#x60;" d="M521 531Q482 569 451.50 597.50Q421 626 398 647Q394 651 388 651Q366 651 366 629Q366 623 372 619Q417 589 452.50 564.50Q488 540 515 522Q519 519 524 522Q526 527 521 531Z"  horiz-adv-x="266" vert-adv-y="1000"  />

      
      <glyph glyph-name="uni61" unicode="&#x61;" d="M55 13Q118 50 206 124Q250 162 283.50 194Q317 226 341 255Q343 257 344 257Q352 257 345 246Q328 220 311.50 189Q295 158 278 122Q264 92 250 53Q236 14 224-25.50Q212-65 204.50-100Q197-135 196-156Q195-182 202.50-202.50Q210-223 229-234Q245-245 265-252.50Q285-260 309-260Q325-260 339-257.50Q353-255 367-250Q395-240 428.50-218Q462-196 504-162Q549-124 581.50-86Q614-48 637-14Q641-7 641-3Q641-1 640 0Q637 0 628-10Q604-41 571.50-76Q539-111 498-144Q413-212 360-230Q325-242 289-242Q253-242 232-225.50Q211-209 211-175Q211-170 211-165Q211-161 212-156Q216-127 228-85Q240-43 256.50 3.50Q273 50 293 95.50Q313 141 334 176Q361 221 389.50 264.50Q418 308 447 353Q448 355 445 360Q442 365 438 365Q434 365 432 363Q424 353 406 350Q404 349 387 351Q375 355 363 357.50Q351 360 339 360Q328 360 317.50 357.50Q307 355 298 352Q259 336 214 304.50Q169 273 118 222Q7 111 7 40Q7 5 32 5Q42 5 55 13M71 98Q85 130 108.50 165Q132 200 166 238Q238 317 285 329Q297 332 308 332Q328 332 341 322.50Q354 313 354 302Q354 298 351 295Q280 210 218 150.50Q156 91 100 56Q92 51 85 51Q67 51 67 75Q67 87 71 98Z"  horiz-adv-x="421" vert-adv-y="1000"  />

      
      <glyph glyph-name="uni63" unicode="&#x63;" d="M331 344Q347 363 347 381Q347 399 336.50 411Q326 423 308.50 428Q291 433 272 427Q248 419 220 401.50Q192 384 164 358.50Q136 333 109.50 301.50Q83 270 62 235Q41 200 27.50 163Q14 126 12 90Q11 70 21 52Q31 34 46.50 21.50Q62 9 79.50 2.50Q97-4 112-1Q131 2 150 9.50Q169 17 187 26Q205 35 220 44.50Q235 54 246 62Q254 67 250.50 70.50Q247 74 239 69Q211 53 173.50 39Q136 25 103 21Q90 20 77.50 22.50Q65 25 55.50 32.50Q46 40 40.50 54Q35 68 36 90Q40 138 64 180Q88 222 111 253L123 269Q157 307 194.50 341.50Q232 376 269 397Q284 405 295.50 405.50Q307 406 313 399.50Q319 393 318 381Q317 369 307 353Q295 336 269 314Q243 292 220 275Q260 284 287 303.50Q314 323 331 344M220 277Q220 276 219 276Q219 276 219 275Q220 276 220 277Z"  horiz-adv-x="362" vert-adv-y="1000"  />

      
      <glyph glyph-name="uni64" unicode="&#x64;" d="M404 340Q387 345 373.50 347.50Q360 350 349 350Q338 350 327.50 347.50Q317 345 308 342Q233 312 127 212Q9 100 9 33Q9-1 46-1Q50-1 56 1Q120 27 220 118Q264 156 298 192.50Q332 229 358 261Q361 265 364 265Q375 265 369 248Q311 95 311 37Q311 23 314.50 11Q318-1 323-9Q334-21 345-15Q349-14 353-8Q356-2 351 0Q346 1 342 1.50Q338 2 334 3Q328 10 328 14Q327 119 421 302Q443 345 465 384.50Q487 424 509 462Q526 461 543 461Q560 461 579 461Q964 461 1366 649Q1474 699 1531 773Q1582 839 1582 913Q1582 1010 1500 1080Q1413 1152 1286 1152Q1209 1152 1131 1124Q897 1043 668 750Q645 721 620 685.50Q595 650 566 607L564 607Q465 586 417 533Q410 526 410 516Q410 500 421 485.50Q432 471 446 469Q453 467 460.50 466Q468 465 476 464Q459 435 441 404Q423 373 404 340M1137 1112Q1206 1141 1280 1141Q1392 1141 1476 1081Q1560 1024 1560 937Q1560 803 1352 683Q994 475 577 475Q560 475 546 475Q532 475 518 476Q812 974 1137 1112M73 87Q99 151 176 228Q215 266 246.50 289Q278 312 304 318Q317 321 330 321Q366 321 366 298Q366 287 354 272Q293 201 230 146Q167 91 101 48Q93 43 85 43Q68 43 68 65Q68 77 73 87M448 484Q426 487 426 504Q426 515 433 522Q454 547 485 566Q516 585 560 597Q543 570 524.50 540.50Q506 511 486 479Q475 480 465.50 481Q456 482 448 484Z"  horiz-adv-x="433" vert-adv-y="1000"  />

      
      <glyph glyph-name="uni65" unicode="&#x65;" d="M465 308Q470 315 466.50 317Q463 319 458 312Q446 301 424.50 290Q403 279 382 277Q366 275 343.50 274Q321 273 295 272.50Q269 272 240 272Q212 272 185 272Q235 280 274 299Q313 318 328 346Q337 361 335.50 379Q334 397 325.50 411.50Q317 426 302 433.50Q287 441 268 435Q233 421 189.50 386.50Q146 352 106.50 304.50Q67 257 39.50 202Q12 147 9 92Q8 72 18 54.50Q28 37 43 24Q58 11 76 4.50Q94-2 109 1Q127 4 146.50 11.50Q166 19 184 28Q202 37 217 46.50Q232 56 243 64Q251 69 247 72.50Q243 76 235 71Q208 56 170.50 42Q133 28 100 23Q87 22 74.50 24.50Q62 27 52.50 34.50Q43 42 37.50 56Q32 70 33 92Q34 116 42 138.50Q50 161 61 182Q72 203 84.50 221.50Q97 240 108 255Q138 255 178 255Q218 255 258 256Q298 257 331.50 258Q365 259 382 262Q410 266 432.50 281.50Q455 297 465 308M304 355Q292 337 271.50 322Q251 307 226 295.50Q201 284 173 278Q145 272 119 272Q153 309 191 343.50Q229 378 266 399Q281 407 292.50 407.50Q304 408 310 401.50Q316 395 315 383Q314 371 304 355Z"  horiz-adv-x="338" vert-adv-y="1000"  />

      
      <glyph glyph-name="uni66" unicode="&#x66;" d="M-550-186Q-536-181-535.50-184.50Q-535-188-549-194Q-600-217-641-264.50Q-682-312-699-378Q-713-433-698.50-475Q-684-517-649.50-541Q-615-565-565-567.50Q-515-570-457-545Q-400-520-342-465.50Q-284-411-227.50-339Q-171-267-118-184.50Q-65-102-18.50-22Q28 58 66 129.50Q104 201 131 251Q139 265 133 272.50Q127 280 120 285Q112 290 102.50 294.50Q93 299 97 308Q99 316 109 315.50Q119 315 125 315Q136 315 147 314Q158 313 170 315Q187 340 206.50 367Q226 394 247 420Q268 446 290 469Q312 492 334 509Q355 525 380.50 539.50Q406 554 433.50 564.50Q461 575 489 579.50Q517 584 543 580Q555 578 563.50 568.50Q572 559 572 553Q572 551 570 546.50Q568 542 565 537.50Q562 533 558.50 530.50Q555 528 552 530Q535 547 513 556Q491 565 468 562Q427 556 388.50 527Q350 498 316 460Q282 422 254.50 382.50Q227 343 210 315L374 315Q382 315 381.50 310Q381 305 370 305Q331 304 291.50 301.50Q252 299 209 297Q201 296 198 294Q195 292 193 289Q168 246 128 173.50Q88 101 37.50 15.50Q-13-70-71.50-161Q-130-252-193-331.50Q-256-411-321.50-471.50Q-387-532-450-557Q-525-587-582-580.50Q-639-574-675.50-544.50Q-712-515-726-469.50Q-740-424-729-376Q-722-343-703.50-313Q-685-283-660-258Q-635-233-606.50-214.50Q-578-196-550-186Z"  horiz-adv-x="255" vert-adv-y="1000"  />

      
      <glyph glyph-name="uni67" unicode="&#x67;" d="M394 287Q398 287 400 285Q408 283 414.50 276Q421 269 421 261Q419 249 410 237Q394 189 371.50 121Q349 53 318-37Q471-10 607-10Q632-10 650.50-11.50Q669-13 683-15Q694-17 705.50-24Q717-31 726.50-41.50Q736-52 742-64Q748-76 748-89Q748-101 743-111Q730-136 678-177Q669-185 663-185Q661-185 661-184Q661-178 671-171Q730-116 730-72Q730-36 681-32Q667-31 648.50-30.50Q630-30 607-30Q516-30 442.50-35.50Q369-41 311-54Q16-895-404-922Q-548-930-668-835Q-789-740-789-622Q-789-585-773-547Q-697-368-294-209Q-20-100 280-43Q303 9 334 120Q339 137 342.50 151.50Q346 166 350 178Q333 162 302.50 139.50Q272 117 227 85Q170 45 128 19.50Q86-6 57-19Q49-22 38-22Q2-22 2 14Q2 28 11 45Q58 141 175 215Q292 288 394 287M-749-574Q-761-606-761-638Q-761-744-656-825Q-545-910-406-904Q-164-895 54-542Q121-433 176.50-313Q232-193 276-58Q-85-134-356-257Q-683-409-749-574M333 182Q358 201 361 237Q361 238 360.50 238Q360 238 360 239Q360 242 361 243Q361 261 354 262Q343 266 308 257Q235 240 163 185Q87 125 66 63Q65 58 64.50 55Q64 52 64 47Q64 15 88 15Q109 15 211 88Q252 117 282.50 140.50Q313 164 333 182Z"  horiz-adv-x="431" vert-adv-y="1000"  />

      
      <glyph glyph-name="uni68" unicode="&#x68;" d="M266 430Q282 429 299 428.50Q316 428 333 428Q723 428 1125 617Q1235 668 1290 741Q1341 807 1341 881Q1341 978 1259 1048Q1173 1120 1045 1120Q968 1120 890 1092Q744 1041 603.50 913.50Q463 786 323 575Q225 554 176 502Q173 498 171 494Q169 490 169 484Q169 470 180 455Q191 440 205 437Q214 435 221.50 434Q229 433 234 432Q162 308 106.50 205.50Q51 103 11 18Q10 15 10 10Q10-6 18-6Q21-6 23-1Q32 11 34 7Q79 61 163 142Q263 238 319 268Q330 275 339 275Q354 275 354 261Q354 253 350 248Q262 132 243 53Q238 30 261 12Q280-6 298-6Q356-6 486 100L493 107Q492 108 492 108Q492 109 491 110Q490 109 487.50 108Q485 107 482 105Q371 21 322 21Q295 21 295 47Q295 83 344 172Q365 209 384 238.50Q403 268 420 289Q421 290 421 294Q421 302 412 309.50Q403 317 397 316Q362 307 358 302Q325 299 233 226Q195 194 159 162Q123 130 91 98Q77 84 69 75Q61 66 56 62Q112 164 164 255Q216 346 266 430M275 447Q421 695 575 852.50Q729 1010 897 1080Q966 1109 1039 1109Q1151 1109 1235 1049Q1319 992 1319 905Q1319 772 1111 651Q1013 594 908 553Q803 512 690 485Q601 465 516.50 454.50Q432 444 349 444Q329 444 310.50 445Q292 446 275 447M244 449Q241 449 232.50 450Q224 451 210 453Q188 456 188 473Q188 484 196 492Q216 515 245.50 533.50Q275 552 317 564Q299 536 280.50 507Q262 478 244 449Z"  horiz-adv-x="521" vert-adv-y="1000"  />

      
      <glyph glyph-name="uni6b" unicode="&#x6b;" d="M312 431Q702 431 1104 620Q1215 672 1269 745Q1320 811 1320 884Q1320 980 1239 1052Q1151 1123 1024 1123Q948 1123 869 1096Q723 1045 582.50 917Q442 789 302 579Q254 568 217 549.50Q180 531 155 505Q148 498 148 487Q148 473 159 458Q170 443 184 440Q193 438 200.50 437.50Q208 437 213 436L217 436Q196 402 172 361Q148 320 120 272Q106 275 97.50 261Q89 247 97 221Q82 192 62.50 144.50Q43 97 16 29Q15 26 15 21Q20 5 25 5Q29 5 31 10Q56 70 77 116.50Q98 163 118 195Q357-101 538-150Q545-152 557-155.50Q569-159 590-162Q636-167 639-165Q660-151 672.50-133Q685-115 693-98Q692-96 692-93Q692-91 691-90Q687-88 684-95Q660-149 592-149Q578-149 561-144Q463-115 338 1Q279 55 236.50 107.50Q194 160 165 211Q237 211 315 246Q397 283 424 334Q437 364 437 383Q434 406 405 406Q336 406 147 269Q179 323 201.50 361.50Q224 400 237 426Q241 428 245.50 429Q250 430 254 432Q268 431 283 431Q298 431 312 431M254 450Q400 698 554 855.50Q708 1013 876 1083Q945 1112 1019 1112Q1129 1112 1214 1053Q1298 994 1298 909Q1298 775 1090 654Q896 544 669 488Q494 448 328 448Q308 448 289.50 448.50Q271 449 254 450M328 268Q315 258 296 250Q277 242 253 234Q230 226 210.50 223Q191 220 175 220Q165 220 162 221Q156 231 153 238.50Q150 246 148 251Q171 275 234 318Q311 368 341 372Q375 377 375 348Q378 306 328 268M223 452Q220 452 211.50 453Q203 454 189 457Q167 460 167 476Q167 488 175 495Q215 543 296 568Q278 539 260 510.50Q242 482 223 452Z"  horiz-adv-x="550" vert-adv-y="1000"  />

      
      <glyph glyph-name="uni6c" unicode="&#x6c;" d="M26 114Q27 67 46 43.50Q65 20 94 16Q123 12 159 27Q195 42 230 73Q241 83 253.50 96Q266 109 274 119Q282 130 278.50 131.50Q275 133 267 125Q256 113 245.50 102.50Q235 92 222 82Q198 64 170.50 52.50Q143 41 119.50 44Q96 47 80.50 68Q65 89 67 136Q68 177 79.50 228.50Q91 280 108 327Q260 356 406.50 397Q553 438 696 493Q1112 650 1207 831Q1224 866 1229 905Q1239 1025 1127 1119Q1017 1214 871 1206Q447 1179 77 340L77 337Q52 279 38 222.50Q24 166 26 114M1186 858Q1103 690 763 541Q620 478 458 429Q296 380 113 342Q116 347 118 352Q120 357 122 362L121 362Q176 490 240 605.50Q304 721 380 826Q629 1177 871 1188Q1014 1193 1114 1109Q1214 1028 1203 922Q1201 905 1197 889.50Q1193 874 1186 858Z"  horiz-adv-x="343" vert-adv-y="1000"  />

      
      <glyph glyph-name="uni70" unicode="&#x70;" d="M41-77Q14-74-18-74Q13 3 41 53.50Q69 104 93.50 140Q118 176 139.50 204Q161 232 180 264Q218 284 247.50 294Q277 304 300 304Q360 304 360 250Q360 187 309 129Q213 97 159 77.50Q105 58 92 50Q88 46 88 40Q88 19 109 21Q238 36 322 114Q373 131 416 144.50Q459 158 494 168Q498 169 501 172Q502 173 501 175Q498 176 494 175Q476 174 354 142Q400 206 400 258Q400 324 328 324Q302 324 270 317Q238 310 197 294Q235 360 269.50 413Q304 466 334 510Q340 519 343 520Q346 521 346 525Q346 532 333 528Q302 516 297 508Q245 430 207 372Q169 314 144 276Q97 257 91 240Q88 228 108 210Q86 171 65.50 131.50Q45 92 23 54Q11 34 3 18Q-5 2-12-12.50Q-19-27-26.50-41.50Q-34-56-43-74Q-128-75-212-88.50Q-296-102-384-125Q-507-158-608.50-210.50Q-710-263-791-334Q-950-471-950-650Q-950-712-931.50-763.50Q-913-815-876-860Q-801-947-695-947Q-629-947-558-910Q-429-839-302.50-654Q-176-469-55-168Q-47-148-39-128Q-31-108-23-89Q14-89 41-92Q56-95 56-85Q56-79 41-77M-80-164Q-103-213-124.50-262.50Q-146-312-168-360Q-209-451-252-526Q-295-601-338-663Q-454-833-567-894Q-623-925-688-925Q-738-925-781.50-907.50Q-825-890-861-853Q-938-778-938-672Q-938-504-756-349Q-675-278-576-226Q-477-174-359-139Q-277-115-200.50-102.50Q-124-90-48-89Q-58-112-66-130.50Q-74-149-80-164Z"  horiz-adv-x="417" vert-adv-y="1000"  />

      
      <glyph glyph-name="uni72" unicode="&#x72;" d="M-19-13Q-24-19-25-13Q-27-8-24-3Q73 147 108 228Q114 243 114 253Q114 255 111 264Q110 268 111 271Q123 275 186 313Q187 315 190 315Q196 315 198 310Q202 304 197 299Q165 255 142.50 222.50Q120 190 109 168Q106 162 106 158Q106 153 117 157Q126 161 129 165Q168 212 230 262Q294 314 330 329Q361 330 376 323Q377 322 377 321Q377 318 373.50 312.50Q370 307 365.50 302.50Q361 298 356 295.50Q351 293 348 295Q328 304 294 286Q146 204 30 14Q30 11 22 7Q14 4 4-0.50Q-6-5-19-13Z"  horiz-adv-x="271" vert-adv-y="1000"  />

      
      <glyph glyph-name="uni73" unicode="&#x73;" d="M186 106Q173 113 152 143Q133 174 130 194Q123 243 218 308Q293 361 350 375Q355 376 360.50 376.50Q366 377 372 377Q383 377 399 374Q415 371 438 363Q445 361 460.50 371Q476 381 483 391Q487 395 483 404Q478 410 472 410Q416 411 352.50 390.50Q289 370 217 327Q73 243 81 176Q83 162 88.50 149Q94 136 105 122L137 79Q19-3 2-24Q-5-36 8-37Q13-39 21.50-37Q30-35 44-33Q53-36 65-36Q100-36 156-11Q222 17 222 45Q222 52 216.50 63.50Q211 75 198 92Q278 138 351.50 167.50Q425 197 495 211L494 212Q419 199 343 175Q267 151 186 106M53-14Q58-6 70 4Q82 14 102 28Q135 52 151 62Q174 41 174 25Q174 19 170 14Q165 6 151.50 0Q138-6 118-14Q75-29 57-25Q45-23 53-14Z"  horiz-adv-x="494" vert-adv-y="1000"  />

      
      <glyph glyph-name="uni74" unicode="&#x74;" d="M172-556Q239-556 314.50-516Q390-476 477-398Q648-243 668-111Q670-88 640-43Q611 0 579 0Q571 0 567-1Q541-12 531.50-18Q522-24 517-32Q515-41 525-41Q530-41 541-34Q552-27 567-25Q634-14 634-108Q626-162 590.50-222Q555-282 489-351Q425-420 363-463Q301-506 238-526Q195-539 160-539Q37-539 37-365Q37-353 37-341Q37-330 38-317Q46-224 86-107.50Q126 9 195 152Q240 242 287 319Q334 396 387 474Q395 487 412 490Q506 495 579.50 499.50Q653 504 710 506Q719 507 724.50 515.50Q730 524 730 526Q727 529 718 529Q710 529 677.50 529.50Q645 530 586 530L441 530Q418 530 434 553Q651 851 745 870Q755 873 755 877Q755 886 744 886Q732 886 721.50 881.50Q711 877 687 869Q637 850 631 843Q562 763 499 688.50Q436 614 388 539Q386 536 389 533Q392 530 388 530Q340 530 313.50 527Q287 524 284 518Q276 501 312 487Q330 477 330 459Q330 442 318 429Q267 355 216 262Q165 169 114 53Q-1-210-1-351Q-1-394 6-430.50Q13-467 40-496Q92-556 172-556Z"  horiz-adv-x="757" vert-adv-y="1000"  />

      
      <glyph glyph-name="uni76" unicode="&#x76;" d="M47 11Q35 12 25 20Q15 28 18 36Q43 147 167 318Q170 322 177 322Q193 322 193 309Q193 307 192 305.50Q191 304 190 302Q99 158 77 78Q74 66 74 57Q74 35 89 35Q99 35 114 47Q135 64 164 99Q193 134 231 185Q257 220 281.50 254Q306 288 331 323Q334 328 336.50 341Q339 354 346 373Q360 384 370 391Q380 398 387 402Q389 403 393.50 400.50Q398 398 402.50 394.50Q407 391 409.50 387Q412 383 411 382Q382 341 384 322Q385 310 397 301Q400 299 400 296Q400 286 386 289Q375 292 367 295.50Q359 299 354 304Q351 307 342 296Q325 271 301 239.50Q277 208 245 170Q172 83 121 40Q98 18 88 18Q78 18 75 16Q72 14 66 12Q59 10 47 11Z"  horiz-adv-x="321" vert-adv-y="1000"  />

      
      <glyph glyph-name="uni77" unicode="&#x77;" d="M568 260Q540 260 529 264Q513 301 496 301Q487 301 478 294Q469 287 468 280Q466 275 474.50 264.50Q483 254 496 251Q492 175 439 106Q386 38 331 24Q292 16 288 65Q287 71 287 77Q287 83 287 91Q287 122 293.50 156.50Q300 191 311 232Q322 267 331.50 292.50Q341 318 352 335Q353 340 345 341Q337 341 327 339.50Q317 338 313 334Q303 318 296 306Q289 294 284 283Q259 244 195 166Q157 121 127.50 90.50Q98 60 76 44Q72 40 65 40Q54 40 54 54Q54 58 56 64Q63 84 78 113Q93 142 117 179Q149 230 166.50 257.50Q184 285 186 290Q189 296 189 301Q189 313 174 313Q162 313 161 306Q159 297 140.50 266.50Q122 236 87 184Q52 131 32 94Q12 57 8 34Q7 27 17.50 17Q28 7 34 7Q55 4 88 32Q121 59 161.50 106Q202 153 251 220Q256 227 261 224Q266 222 263 216Q238 142 238 59Q238 48 240 42Q248 21 262 9.50Q276-2 286-1Q370 7 443 80Q519 156 535 245Q544 245 552 247Q560 249 568 251Q573 253 573 256Q573 260 568 260Z"  horiz-adv-x="527" vert-adv-y="1000"  />

      
      <glyph glyph-name="uni78" unicode="&#x78;" d="M392 298Q370 289 336 267Q302 245 266 219.50Q230 194 196 169Q162 144 141 128Q144 112 152 86Q160 60 169.50 33Q179 6 190-18.50Q201-43 212-56Q224-71 218.50-73Q213-75 202-64Q193-53 181-31Q169-9 157.50 16.50Q146 42 136 67.50Q126 93 120 112Q99 97 73 76Q47 55 18.50 29Q-10 3-40-26.50Q-70-56-98-88Q-112-104-131-129Q-150-154-164-182Q-178-210-181.50-239Q-185-268-169-293Q-158-313-141.50-323Q-125-333-108-337Q-100-340-102.50-344Q-105-348-113-345Q-128-342-146.50-330Q-165-318-177-301Q-195-275-196.50-247Q-198-219-187.50-190.50Q-177-162-157-133.50Q-137-105-114-76Q-89-47-59.50-17.50Q-30 12 0 40Q30 68 59 92.50Q88 117 112 137Q108 152 103.50 174.50Q99 197 95 220Q91 243 88 265Q85 287 84 302Q83 308 86 313.50Q89 319 93 321.50Q97 324 101 322.50Q105 321 106 312Q109 296 112 274.50Q115 253 118.50 231.50Q122 210 125.50 189.50Q129 169 134 155Q153 170 187 195.50Q221 221 258 247Q295 273 328.50 295Q362 317 382 327Q389 331 394 328Q399 325 401.50 320Q404 315 402 308.50Q400 302 392 298Z"  horiz-adv-x="274" vert-adv-y="1000"  />

      
      <glyph glyph-name="uni79" unicode="&#x79;" d="M266 0Q116-29-26.50-71Q-169-113-308-167Q-711-326-788-505Q-803-541-803-580Q-803-698-682-793Q-562-889-418-880Q2-853 297-12Q412 12 593 12Q616 12 634.50 11.50Q653 11 667 10Q716 6 716-30Q716-73 657-129Q647-136 647-142Q647-143 649-143Q655-143 663-135Q715-94 728-69Q734-60 734-47Q734-34 728-22Q722-10 712.50 0Q703 10 691.50 17Q680 24 669 26Q642 32 593 32Q454 32 302 4Q345 133 365 205Q370 214 373.50 219.50Q377 225 381 230Q383 240 374.50 249Q366 258 349 257Q342 256 335.50 249.50Q329 243 324 234Q310 221 286.50 203Q263 185 230 162Q188 133 155.50 114.50Q123 96 100 87Q92 84 82 87Q74 90 74 100Q74 105 77 113Q96 151 137 211Q186 280 207 289Q205 306 191 305Q183 304 147 288Q113 273 109 266Q106 260 107.50 247Q109 234 107 230Q22 76 16 56Q14 49 20 42Q26 35 35 35Q38 35 44 37Q101 59 197 124Q270 173 319 216Q317 202 312.50 179Q308 156 300 122Q282 44 266 0M-763-532Q-697-366-371-216Q-98-91 262-17Q218-151 162.50-271.50Q107-392 40-501Q-180-853-420-862Q-559-868-670-783Q-776-701-776-596Q-776-579-772.50-563.50Q-769-548-763-532Z"  horiz-adv-x="397" vert-adv-y="1000"  />

      
      <glyph glyph-name="uni7e" unicode="&#x7e;" d="M18 267L47 289Q62 301 77 306.50Q92 312 106 312Q123 312 174 282Q227 254 241 254Q255 254 274 270.50Q293 287 317 319Q320 325 322 329.50Q324 334 324 339Q324 342 320 342Q314 342 305 332Q294 319 279 312Q264 305 241 305Q231 305 214 311Q197 317 170 332Q122 363 106 363Q92 363 71.50 345Q51 327 25 291Q21 284 18.50 278.50Q16 273 16 271Q16 267 18 267Z"  horiz-adv-x="343" vert-adv-y="1000"  />

      
      <glyph glyph-name="uni02C6" unicode="&#x02C6;" d="M180 549Q126 535 45 501Q33 493 33 503Q33 505 38 512Q56 519 124 558Q182 590 184 588Q190 586 284 508Q288 504 288 501Q288 497 283 495Q278 494 274 498Q261 506 248.50 514Q236 522 223 530Q189 550 180 549Z"  horiz-adv-x="312" vert-adv-y="1000"  />

      
      <glyph glyph-name="uni2030" unicode="&#x2030;" d="M250 8Q315 19 397 92Q481 168 484 223Q484 230 483 232Q482 233 483 237Q484 239 496.50 240Q509 241 527 241.50Q545 242 566 242Q588 242 606 242L594 234Q554 222 520 177Q491 139 477 94Q472 72 472 58Q472-3 533-3Q545-3 560 0Q612 15 656 59Q695 101 710 151Q714 163 715.50 174.50Q717 186 717 196Q717 264 653 257Q643 255 639 254Q618 254 584 254.50Q550 255 515 255Q481 255 453 255Q426 255 418 255Q414 257 413 258Q402 265 394.50 269Q387 273 381 272Q364 270 349 255Q341 253 341 253Q341 253 315 253Q297 252 295.50 248Q294 244 294 242Q294 237 300 232.50Q306 228 312 223Q316 222 315 217Q266 155 242.50 109.50Q219 64 218 34Q218 23 229 14.50Q240 6 250 8M210 510Q194 524 177 524Q161 524 143 506Q114 506 111 498Q107 484 108 480Q106 475 94 460Q82 445 62 419Q33 384 23 349Q18 326 18 312Q18 252 77 252Q89 252 103 255Q130 263 153.50 277.50Q177 292 200 315Q221 335 234 358Q247 381 255 406Q262 443 258 472Q257 478 262.50 481.50Q268 485 273 488Q277 496 492 496Q507 496 506 495Q425 429 348 358.50Q271 288 196 210Q27 35 19-25Q19-36 19.50-41.50Q20-47 21-50Q27-50 32-29Q50 42 249 235Q337 321 420 393Q503 465 583 525Q595 532 595 541Q595 549 586 549Q582 549 575.50 545.50Q569 542 559 537Q545 529 538 524.50Q531 520 530 519Q501 505 492 505Q421 506 357 506Q293 506 234 507Q233 507 229 507Q225 507 221 507.50Q217 508 213.50 509Q210 510 210 510M648 240Q698 241 698 187Q698 169 692 150Q675 94 638 57.50Q601 21 560 13Q537 8 519 24Q501 40 501 73Q501 78 501.50 84Q502 90 503 96Q513 156 572 207Q609 238 648 240M196 490Q244 491 244 443Q244 426 238 405Q221 349 183.50 312.50Q146 276 106 268Q83 263 64.50 279Q46 295 46 328Q46 333 46.50 339Q47 345 48 351Q60 411 118 462Q134 476 153 482Q172 488 196 490M240 47Q283 153 359 223Q367 232 371 230Q395 241 430 238Q447 235 453.50 229Q460 223 458 211Q447 156 375 90Q341 57 311.50 39Q282 21 258 16Q237 15 237 31Q237 38 240 47Z"  horiz-adv-x="725" vert-adv-y="1000"  />

      
      <glyph glyph-name="uni2039" unicode="&#x2039;" d="M73 158Q81 174 111 203Q141 232 195 274Q201 280 198 284Q197 288 187 282Q164 267 141.50 252Q119 237 96 222Q39 184 34 173Q30 164 64 34Q66 25 70 25Q78 25 76 36Q64 142 73 158Z"  horiz-adv-x="218" vert-adv-y="1000"  />

      
      <glyph glyph-name="uni2018" unicode="&#x2018;" d="M106 590Q20 515 3 468Q0 457 7 435Q13 411 21 410Q26 408 45 421Q65 436 61 442Q55 455 51.50 464Q48 473 50 481Q54 536 114 579Q118 582 118 585Q118 592 111 592Q108 592 106 590Z"  horiz-adv-x="132" vert-adv-y="1000"  />

      
      <glyph glyph-name="uni2019" unicode="&#x2019;" d="M218 408Q282 498 320 546Q323 550 323 553Q323 572 300 572Q290 572 286 564L206 415Q205 414 205 410Q205 407 210 405Q215 403 218 408Z"  horiz-adv-x="178" vert-adv-y="1000"  />

      
      <glyph glyph-name="uni201C" unicode="&#x201C;" d="M245 580Q160 506 143 458Q140 447 146 425Q153 403 161 400Q166 398 185 411Q205 427 200 432Q195 445 191.50 454Q188 463 189 471Q195 527 254 569Q257 572 257 575Q257 582 251 582Q247 582 245 580M123 580Q38 506 21 458Q18 447 24 425Q31 403 38 400Q44 398 63 411Q82 426 78 432Q66 458 67 471Q72 527 132 569Q135 572 135 575Q135 582 129 582Q125 582 123 580Z"  horiz-adv-x="268" vert-adv-y="1000"  />

      
      <glyph glyph-name="uni201D" unicode="&#x201D;" d="M161 404Q245 476 263 526Q266 535 260 559Q252 582 245 583Q238 585 220 571Q201 556 206 551Q211 539 214.50 529.50Q218 520 217 513Q211 456 152 415Q148 411 148 408Q148 402 155 402Q157 402 161 404M38 404Q123 475 141 526Q144 536 137 559Q131 582 123 583Q116 585 98 571Q79 556 84 551Q89 539 92.50 529.50Q96 520 95 513Q89 456 30 415Q26 411 26 408Q26 402 33 402Q36 402 38 404Z"  horiz-adv-x="279" vert-adv-y="1000"  />

      
      <glyph glyph-name="uni2022" unicode="&#x2022;" d="M172 229Q172 258 153.50 276.50Q135 295 106 295Q78 295 59 276.50Q40 258 40 229Q40 202 59 182.50Q78 163 106 163Q135 163 153.50 182.50Q172 202 172 229Z"  horiz-adv-x="212" vert-adv-y="1000"  />

      
      <glyph glyph-name="uni2013" unicode="&#x2013;" d="M56 170Q120 170 175 170Q230 170 276 172Q306 172 306 186Q306 194 285 194L75 194Q37 194 37 178Q37 170 56 170Z"  horiz-adv-x="334" vert-adv-y="1000"  />

      
      <glyph glyph-name="uni2014" unicode="&#x2014;" d="M91 173L518 173Q543 173 543 180Q543 186 525 186L100 186Q71 186 71 178Q71 173 91 173Z"  horiz-adv-x="574" vert-adv-y="1000"  />

      
      <glyph glyph-name="uni02DC" unicode="&#x02DC;" d="M28 502L51 515Q74 528 97 528Q110 528 151 510Q189 494 204 494Q225 494 263 532Q268 540 268 543Q268 546 265 546Q262 546 254 540Q238 524 204 524Q196 524 182.50 527.50Q169 531 148 540Q128 548 115.50 553Q103 558 97 558Q77 558 33 516Q26 505 26 504Q26 502 28 502Z"  horiz-adv-x="296" vert-adv-y="1000"  />

      
      <glyph glyph-name="uni203A" unicode="&#x203A;" d="M168 150Q163 139 131.50 111Q100 83 42 35Q38 31 38 29Q38 23 45 23Q49 23 54 26Q77 41 99.50 56Q122 71 145 86Q202 124 207 135Q211 144 177 274Q175 283 170 283Q163 283 165 272Q177 168 168 150Z"  horiz-adv-x="227" vert-adv-y="1000"  />

      
      <glyph glyph-name="unia1" unicode="&#xa1;" d="M111 238Q96 210 69.50 160Q43 110 5 36Q-21-16-43-56Q-65-96-83-125Q-84-127-88.50-128Q-93-129-97.50-129.50Q-102-130-106.50-131Q-111-132-112-135Q-118-146-114-171Q-112-196-106-198Q-95-201-77.50-196.50Q-60-192-56-183Q-1-31 129 228Q130 230 130 234Q130 245 121 245Q115 245 111 238M150 361Q150 309 158 299Q160 297 164 297Q174 297 190 304.50Q206 312 209 318Q213 322 209 348Q206 372 201 377Q200 381 193 381Q180 381 165 374Q150 367 150 361Z"  horiz-adv-x="246" vert-adv-y="1000"  />

      
      <glyph glyph-name="unia2" unicode="&#xa2;" d="M92 73Q96 71 94 67Q83 51 75 38Q67 25 61 14Q55 8 68 5Q81 2 86 10Q94 24 101.50 36Q109 48 116 59Q117 61 123 61Q208 61 323 155Q330 159 330 166Q330 170 326 170Q322 170 318 167Q225 95 150 82Q103 74 103 118Q103 123 104 129Q105 135 107 142Q127 218 190 294Q222 332 255.50 359.50Q289 387 324 402Q332 404 343 404Q358 404 372 401.50Q386 399 398 395Q406 394 415 405Q417 410 419 414Q421 418 422 422Q424 426 415.50 431Q407 436 402 436Q381 439 353 426Q348 423 353 430Q403 499 404 497Q402 501 398 501Q395 499 392.50 498Q390 497 388 495Q371 471 357 453Q343 435 332 421L329 418Q236 381 154 296Q67 203 57 121Q56 116 59 108.50Q62 101 67.50 94Q73 87 79.50 81.50Q86 76 92 73Z"  horiz-adv-x="395" vert-adv-y="1000"  />

      
      <glyph glyph-name="unia7" unicode="&#xa7;" d="M56-59Q7-82 13-118Q21-157 73-173Q90-178 110.50-181.50Q131-185 154-185Q186-185 213.50-179Q241-173 267-162Q326-134 316-74Q313-60 306.50-45.50Q300-31 289-17Q290-17 304-17Q318-17 335-17Q353-17 369.50-16.50Q386-16 394-15Q416-15 416-12Q416-10 409-10Q400-10 380-10Q361-10 341-10Q321-10 304-10Q287-10 282-10Q237 38 203.50 72.50Q170 107 148 129Q114 167 108 196Q123 179 152 172Q189 159 233 159Q265 159 292.50 165.50Q320 172 346 183Q405 210 395 271Q393 281 389 292Q385 303 376 316Q375 320 373.50 322Q372 324 370 326Q369 327 369 328Q382 327 390.50 328.50Q399 330 399.50 331.50Q400 333 391.50 334Q383 335 361 334Q315 382 282 416.50Q249 451 227 473Q210 496 199 514Q188 532 186 546Q180 583 210 607Q273 661 384 661Q425 661 458 652Q483 646 503 626Q513 615 520 602.50Q527 590 529 574Q531 564 530.50 555.50Q530 547 531 544Q532 541 535 544Q536 546 536 547Q536 549 538 552Q541 570 538 587Q534 613 514 636Q494 656 472 663Q442 672 397 672Q276 672 200 615Q163 589 169 548Q177 510 219 465Q255 427 285 394Q315 361 340 333Q323 331 306.50 329.50Q290 328 275 326Q235 322 202 311Q169 300 135 285Q90 265 91 232Q88 218 91 204Q97 167 140 121Q176 82 206 49Q236 16 261-11Q134-21 56-59M266-19Q293-44 297-74Q301-96 291-114.50Q281-133 256-146Q208-173 145-173Q127-173 109.50-171.50Q92-170 74-165Q66-163 59.50-160Q53-157 46-152Q30-140 25-125Q20-97 67-73Q88-60 115.50-51Q143-42 177-34Q194-31 216-27Q238-23 266-19M383 272Q388 247 375 231Q362 215 338 199Q318 186 288.50 180.50Q259 175 228.50 176.50Q198 178 170 185Q142 192 124 202.50Q106 213 103 226.50Q100 240 119 255Q138 270 183 285.50Q228 301 308 315Q315 316 325 317Q335 318 345 316Q361 311 371.50 300Q382 289 383 272Z"  horiz-adv-x="442" vert-adv-y="1000"  />

      
      <glyph glyph-name="unia8" unicode="&#xa8;" d="M234 563Q234 586 232 598Q230 610 226 615Q222 617 220 617Q211 617 199 609Q186 603 182.50 598.50Q179 594 182 573Q185 553 188 547Q191 544 196 544Q207 544 220.50 550.50Q234 557 234 563M82 563Q82 607 76 615Q74 617 69 617Q46 617 32 598Q29 594 32 573Q34 553 37.50 548.50Q41 544 45 544Q55 544 68.50 550.50Q82 557 82 563Z"  horiz-adv-x="256" vert-adv-y="1000"  />

      
      <glyph glyph-name="uniab" unicode="&#xab;" d="M57 151Q73 181 179 266Q186 273 183 276Q179 280 170 275Q30 188 19 165Q13 157 48 26Q51 18 55 18Q62 18 61 29Q49 132 57 151M196 151Q204 165 234 194Q264 223 318 266Q323 271 320 276Q317 279 308 274Q170 188 157 165Q153 156 187 26Q189 18 194 18Q200 18 199 29Q187 133 196 151Z"  horiz-adv-x="334" vert-adv-y="1000"  />

      
      <glyph glyph-name="unib0" unicode="&#xb0;" d="M174 493Q174 519 155 537Q136 555 109 555Q83 555 64 537Q45 519 45 493Q45 467 64 448.50Q83 430 109 430Q136 430 155 448.50Q174 467 174 493M109 442Q88 442 73 457Q58 472 58 493Q58 513 73 528Q88 543 109 543Q129 543 145 528Q161 513 161 493Q161 472 145 457Q129 442 109 442Z"  horiz-adv-x="201" vert-adv-y="1000"  />

      
      <glyph glyph-name="unib2" unicode="&#xb2;" d="M172 375Q164 376 154 376Q144 376 133 376Q107 376 79.50 375Q52 374 21 372Q13 371 13 376Q13 386 29 388Q43 392 58 396.50Q73 401 88 408Q123 424 153 448Q198 482 204 519Q206 533 196 547Q184 563 166 566Q158 569 150 569Q123 569 94 552Q91 550 91 553Q91 560 99 565Q133 585 172 582Q199 581 213 563Q224 547 224 530Q224 490 167 449Q144 432 121.50 418.50Q99 405 76 397Q70 395 70 393Q70 385 170 385Q180 385 180 380Q180 375 172 375Z"  horiz-adv-x="239" vert-adv-y="1000"  />

      
      <glyph glyph-name="unib3" unicode="&#xb3;" d="M196 415Q201 424 201 437Q201 456 188 469.50Q175 483 155 485Q152 485 152 487Q152 489 155 491Q182 502 201 514Q220 526 229 541Q234 551 234 559Q234 583 202 583Q184 583 168.50 579Q153 575 140 568Q133 562 133 558Q133 553 135 555Q166 569 193 569Q210 569 210 552Q210 542 206 533Q201 525 191.50 518Q182 511 168 503Q140 486 118 486Q108 486 108 479Q108 476 110 476Q145 480 165 464Q179 454 179 432Q179 423 176 416Q163 385 116 363Q97 355 80 350Q63 345 47 345Q25 345 25 358Q24 366 19 366Q9 366 9 353Q9 340 48 340Q82 341 127 360Q179 381 196 415Z"  horiz-adv-x="249" vert-adv-y="1000"  />

      
      <glyph glyph-name="unib4" unicode="&#xb4;" d="M362 537Q390 548 432 562Q474 576 531 594Q541 597 541 608Q541 630 525 630Q519 630 446 593Q402 571 380 560.50Q358 550 356 549Q350 546 352 540Q355 535 362 537Z"  horiz-adv-x="266" vert-adv-y="1000"  />

      
      <glyph glyph-name="uniba" unicode="&#xba;" d="M174 493Q174 519 155 537Q136 555 109 555Q83 555 64 537Q45 519 45 493Q45 467 64 448.50Q83 430 109 430Q136 430 155 448.50Q174 467 174 493M109 442Q88 442 73 457Q58 472 58 493Q58 513 73 528Q88 543 109 543Q129 543 145 528Q161 513 161 493Q161 472 145 457Q129 442 109 442Z"  horiz-adv-x="201" vert-adv-y="1000"  />

      
      <glyph glyph-name="unibb" unicode="&#xbb;" d="M286 154Q272 126 164 38Q156 32 161 29Q162 23 172 31Q194 46 217 60.50Q240 75 263 90Q320 130 324 140Q330 147 295 278Q293 287 288 287Q282 287 283 276Q294 172 286 154M147 154Q132 124 25 38Q19 32 22 29Q24 22 33 30Q56 45 78.50 59.50Q101 74 124 90Q152 110 167.50 121.50Q183 133 186 139Q189 145 170 216Q152 287 148 287Q143 287 144 276Q156 171 147 154Z"  horiz-adv-x="370" vert-adv-y="1000"  />

      
      <glyph glyph-name="unibf" unicode="&#xbf;" d="M276 296Q276 294 278.50 288.50Q281 283 283.50 276.50Q286 270 287.50 263Q289 256 287 250Q283 239 272 234Q254 229 222 217Q190 205 143 186Q96 167 65 153Q34 139 16 129Q-72 77-72-12Q-72-42-61-80Q-53-105-39.50-126.50Q-26-148-7-167Q37-211 97-211Q115-211 131-207Q151-202 171-189Q191-176 208-153Q213-146 213-140Q213-135 210-135Q208-135 198-145Q177-177 129-177Q81-177 41-147Q-4-117-19-66Q-24-50-26.50-35.50Q-29-21-29-7Q-29 86 107 156Q177 194 322 235Q329 238 329 244Q329 255 311 278Q294 302 283 302Q276 302 276 296M299 395Q298 392 297.50 384.50Q297 377 299 365Q300 354 301.50 348Q303 342 305 339.50Q307 337 309 337Q311 337 313 337Q321 337 335 343Q349 350 353.50 355.50Q358 361 354 382Q352 402 348 406Q344 410 337 410Q326 410 313.50 404.50Q301 399 299 395Z"  horiz-adv-x="400" vert-adv-y="1000"  />

      
      <glyph glyph-name="uni5c" unicode="&#x5c;" d="M612-78Q616-99 623-99Q625-93 625-75Q616-8 362 243Q244 358 147 444Q50 530-28 587Q-37 595-47 595Q-56 595-56 587Q-56 578-44 571Q37 511 133.50 427Q230 343 343 234Q592-5 612-78Z"  horiz-adv-x="455" vert-adv-y="1000"  />

      
      <glyph glyph-name="uni5e" unicode="&#x5e;" d="M503 591Q475 584 441.50 571.50Q408 559 367 542Q355 535 355 544Q355 547 357 549Q359 551 361 553Q369 558 390.50 569Q412 580 447 599Q504 631 506 630Q512 628 606 550Q610 546 610 542Q610 539 605 537Q600 535 596 540Q584 548 571 556Q558 564 546 572Q511 592 503 591Z"  horiz-adv-x="376" vert-adv-y="1000"  />

      
      <glyph glyph-name="uni6a" unicode="&#x6a;" d="M16-40Q23-24 32.50 3Q42 30 51.50 60.50Q61 91 70 122.50Q79 154 85.50 179.50Q92 205 95 222.50Q98 240 96 242Q98 253 111 264.50Q124 276 133 278Q144 282 151 277.50Q158 273 157 264Q156 253 146 240Q139 222 128.50 189.50Q118 157 105 118Q92 79 79 38.50Q66-2 54-34Q100-26 154-19.50Q208-13 258.50-10Q309-7 351-7Q394-7 419-12Q432-15 446-24.50Q460-34 470-47.50Q480-61 483.50-77.50Q487-94 479-109Q466-132 450-145Q434-158 414-175Q400-186 398-182.50Q396-179 407-168Q427-150 442-128Q457-106 463-87Q471-60 457-45.50Q443-31 417-29Q391-26 345-26Q300-26 247-29Q194-32 141-37.50Q88-43 47-52Q21-128-16-220Q-53-312-101-406.50Q-149-501-207.50-590.50Q-266-680-337-751.50Q-408-823-491-868.50Q-574-914-669-920Q-724-924-778.50-910Q-833-896-880-869Q-927-842-965-805Q-1003-768-1025.50-725Q-1048-682-1052.50-636Q-1057-590-1038-545Q-1016-493-969-446Q-922-399-858-356.50Q-794-314-717.50-277Q-641-240-559.50-207.50Q-478-175-395-148.50Q-312-122-236-100.50Q-160-79-95-64Q-30-49 16-40M-1014-572Q-1030-611-1025.50-651Q-1021-691-1001.50-728.50Q-982-766-948.50-798.50Q-915-831-872-855Q-829-879-777.50-891.50Q-726-904-671-902Q-577-898-493.50-846.50Q-410-795-339-715.50Q-268-636-210-540Q-152-444-107.50-351Q-63-258-33-179.50Q-3-101 12-56Q-92-78-202.50-107.50Q-313-137-419-174Q-525-211-622.50-255.50Q-720-300-799-350Q-878-400-934-456Q-990-512-1014-572M213 427Q210 410 186 388Q161 366 148 370Q127 374 127 387Q127 401 150 424Q173 448 187 451Q197 453 207 444.50Q217 436 213 427Z"  horiz-adv-x="230" vert-adv-y="1000"  />

      
      <glyph glyph-name="unib9" unicode="&#xb9;" d="M119 392Q148 392 159 392.50Q170 393 168 397Q168 400 161 399Q155 399 142.50 400Q130 401 112 404Q96 407 95 415Q95 419 96 422Q102 449 133 503Q162 557 174 566Q174 571 173.50 574Q173 577 174 579Q180 583 184 586Q188 589 191 591Q194 593 194 597Q191 602 187 602Q185 602 183 601Q154 580 75 549Q73 547 71.50 546.50Q70 546 69 544Q69 541 74 541Q75 541 75.50 541.50Q76 542 78 542Q94 547 109 553Q124 559 139 564Q140 565 142 565Q144 565 146 562Q146 560 145 558Q121 509 105 471Q89 433 79 406Q60 405 47 404.50Q34 404 28 402Q19 402 21 393Q23 389 30 389Q49 392 107 392L119 392Z"  horiz-adv-x="198" vert-adv-y="1000"  />

      
      <glyph glyph-name="unib8" unicode="&#xb8;" d="M91 7Q65-11 48-28Q42-34 53-37Q73-43 82-54Q91-65 82-79Q79-85 71-92.50Q63-100 53-106Q43-112 32-116Q21-120 11-121Q3-121 4-125.50Q5-130 13-130Q26-129 40.50-124Q55-119 68-112Q81-105 91-97.50Q101-90 105-83Q111-71 109.50-62Q108-53 102.50-46.50Q97-40 90-36Q83-32 78-30Q73-28 73.50-25Q74-22 76-20Q81-14 86.50-8Q92-2 98 2Q103 6 99.50 8Q96 10 91 7Z"  horiz-adv-x="132" vert-adv-y="1000"  />

      
      <glyph glyph-name="unic7" unicode="&#xc7;" d="M323-4Q399-6 477.50 11.50Q556 29 640 64Q795 129 889 223Q895 230 895 234Q895 239 891 239Q886 239 880 232Q833 189 773 153.50Q713 118 638 87Q557 55 479 37.50Q401 20 324 18Q192 15 119 68Q55 114 55 188Q55 214 63 237Q110 390 318 546Q514 693 684 725Q698 727 710.50 728Q723 729 735 729Q816 729 834 689Q812 666 791 637Q770 608 747 573Q691 482 691 427Q691 423 706 420Q721 418 724 420Q780 453 822 502Q857 542 870 576.50Q883 611 883 650Q883 690 869 707Q882 721 882 726Q882 732 878 733Q871 735 870 730L857 717Q824 747 748 747Q722 747 694 744Q589 731 428 645Q344 599 274.50 548Q205 497 148 440Q20 309 20 200Q20 108 116 51Q138 37 162.50 27Q187 17 213 9Q200 1 188-8Q176-17 168-25Q160-33 175-39Q205-46 217-60Q229-74 218-94Q213-102 201.50-110.50Q190-119 175.50-127Q161-135 145-140.50Q129-146 114-147Q103-147 104-153.50Q105-160 118-160Q137-158 157.50-151.50Q178-145 196.50-136Q215-127 229.50-117Q244-107 250-98Q259-83 257-71Q255-59 247.50-50Q240-41 229-36Q218-31 211-29Q204-26 204.50-22.50Q205-19 208-15Q213-10 218-4.50Q223 1 229 5Q272-2 323-4M716 447Q729 501 765 566Q783 601 801.50 627Q820 653 839 673Q849 656 849 628Q849 596 836 566Q801 485 727 438Q723 435 718 438Q715 440 716 447Z"  horiz-adv-x="922" vert-adv-y="1000"  />

      
      <glyph glyph-name="unie7" unicode="&#xe7;" d="M15 91Q15 60 41 31Q51 18 63 12Q56 7 50.50 2.50Q45-2 41-6Q37-9 44-13Q60-18 66.50-25.50Q73-33 66-43Q61-52 44.50-62Q28-72 13-73Q7-73 8-76Q9-79 14-79Q34-77 55.50-66Q77-55 82-45Q87-37 86-30.50Q85-24 81.50-19Q78-14 72.50-11.50Q67-9 63-8Q59-6 59.50-4Q60-2 62 0Q64 2 68 8Q75 4 82.50 2.50Q90 1 98 0Q119 0 164 16Q192 27 215 39Q238 51 255 67Q262 71 262 76Q262 78 261 78Q255 78 251 71Q225 49 186 33Q138 13 100 18Q58 23 46 46Q41 59 41 79Q41 101 47.50 127Q54 153 66 186Q87 238 133 296Q159 328 183.50 348.50Q208 369 231 380Q235 382 244 382Q254 382 264 379.50Q274 377 282 375Q288 373 293 382Q295 385 296.50 388.50Q298 392 299 394Q299 396 294 399.50Q289 403 284 403Q267 404 231 389Q172 366 117 302Q93 274 74 245Q55 216 41 185Q29 159 22 135.50Q15 112 15 91Z"  horiz-adv-x="311" vert-adv-y="1000"  />

      
      <glyph glyph-name="unic0" unicode="&#xc0;" d="M931 315Q937 329 951 363Q965 397 984 440Q1003 483 1024 530Q1045 577 1066 617Q1069 623 1066.50 627.50Q1064 632 1059.50 636Q1055 640 1050 643Q1045 646 1045 649Q1044 663 1038.50 672.50Q1033 682 1025.50 686Q1018 690 1010 688.50Q1002 687 997 679Q976 649 949 610Q922 571 891.50 528.50Q861 486 829 443Q797 400 767 361Q737 322 710.50 290.50Q684 259 664 239Q598 253 520 263Q442 273 366 274Q290 275 223 262.50Q156 250 113 219Q80 194 65 163.50Q50 133 50 102Q50 71 63.50 42Q77 13 101-9Q125-31 159-43.50Q193-56 233-54Q284-52 334.50-33Q385-14 431.50 14Q478 42 518.50 74Q559 106 590.50 135Q622 164 642 185.50Q662 207 668 212Q681 210 707 205Q733 200 761.50 195Q790 190 815 185.50Q840 181 851 179Q848 165 841 134.50Q834 104 828.50 66Q823 28 823-14Q823-56 835-92Q839-100 843-98.50Q847-97 844-85Q836-54 839-12Q842 30 849.50 69Q857 108 866 138.50Q875 169 879 177Q886 176 898 177Q910 178 922.50 180Q935 182 945 186.50Q955 191 958 198Q962 208 959.50 224.50Q957 241 951.50 258.50Q946 276 939.50 291.50Q933 307 931 315M121 208Q175 241 246 251.50Q317 262 390 259Q463 256 530.50 243.50Q598 231 646 219Q618 185 573.50 140.50Q529 96 474.50 56.50Q420 17 358-10Q296-37 232-36Q194-36 164.50-22.50Q135-9 114.50 13Q94 35 83.50 62.50Q73 90 73 117Q73 144 85 168Q97 192 121 208M687 234Q697 244 718 269.50Q739 295 766.50 330Q794 365 825 406Q856 447 886 487Q916 527 942.50 563.50Q969 600 987 626Q993 634 999 635Q1005 636 1009 632Q1013 628 1014 619.50Q1015 611 1011 601Q992 556 970.50 506.50Q949 457 928.50 405.50Q908 354 889.50 302Q871 250 857 202Q846 203 822 207Q798 211 771 216.50Q744 222 720.50 227Q697 232 687 234M1104 743Q1090 756 1073.50 772.50Q1057 789 1040 806Q1023 823 1007.50 838.50Q992 854 980 866Q974 871 967 869Q960 867 954.50 861Q949 855 948 848Q947 841 954 836Q967 826 985.50 813Q1004 800 1024 786Q1044 772 1063.50 758.50Q1083 745 1098 734Q1102 730 1106 734Q1110 738 1104 743M942 211Q934 201 916 199.50Q898 198 887 198Q889 205 894 219Q899 233 905 248.50Q911 264 916.50 279Q922 294 925 302Q930 291 935 277.50Q940 264 943 251.50Q946 239 946 228Q946 217 942 211Z"  horiz-adv-x="1113" vert-adv-y="1000"  />

      
      <glyph glyph-name="unic1" unicode="&#xc1;" d="M904 324Q907 316 913 300.50Q919 285 924.50 267Q930 249 932.50 232Q935 215 930 205Q927 198 917.50 194Q908 190 896 187.50Q884 185 872.50 184.50Q861 184 854 184Q850 176 841 145Q832 114 824.50 73.50Q817 33 814.50-10Q812-53 820-85Q823-97 819.50-98.50Q816-100 812-91Q800-55 800-12Q800 30 804.50 70Q809 110 816.50 141Q824 172 827 186Q816 187 791.50 192Q767 197 739.50 202Q712 207 686.50 212Q661 217 648 220Q643 214 623 192Q603 170 572.50 140.50Q542 111 502.50 78Q463 45 417.50 16.50Q372-12 322.50-31.50Q273-51 224-53Q165-55 122-26.50Q79 2 60.50 45.50Q42 89 52.50 138Q63 187 111 226Q152 259 216.50 272Q281 285 355 284Q429 283 505 272Q581 261 645 246Q664 266 690 299Q716 332 745 371.50Q774 411 805 455Q836 499 865.50 542.50Q895 586 921 626Q947 666 967 697Q971 705 979 706.50Q987 708 994.50 703.50Q1002 699 1008 689.50Q1014 680 1015 667Q1015 664 1019.50 660.50Q1024 657 1028.50 653.50Q1033 650 1036 645Q1039 640 1036 634Q1015 594 994 546Q973 498 955 453.50Q937 409 923.50 374Q910 339 904 324M119 215Q95 199 83.50 174.50Q72 150 71.50 122Q71 94 81 66Q91 38 110.50 15.50Q130-7 158.50-21Q187-35 223-35Q286-35 346.50-7.50Q407 20 460.50 60.50Q514 101 557 146Q600 191 627 226Q580 238 514.50 250.50Q449 263 378 267Q307 271 238.50 260Q170 249 119 215M668 241Q677 238 700 233Q723 228 749.50 223Q776 218 799.50 214Q823 210 833 210Q846 259 864 311.50Q882 364 901.50 416.50Q921 469 941.50 520Q962 571 980 617Q984 628 983.50 636.50Q983 645 979 649Q975 653 969 652Q963 651 958 642Q941 616 915.50 579Q890 542 860.50 501Q831 460 801 418Q771 376 744.50 340Q718 304 697.50 277.50Q677 251 668 241M909 770Q902 768 899 774.50Q896 781 903 784Q920 793 942 805Q964 817 986.50 829.50Q1009 842 1029 853Q1049 864 1063 871Q1069 874 1074.50 869.50Q1080 865 1082.50 857.50Q1085 850 1083.50 843Q1082 836 1074 833Q1059 827 1038.50 819.50Q1018 812 995.50 803.50Q973 795 950 786.50Q927 778 909 770M914 218Q918 224 918 235Q918 246 915.50 259Q913 272 908.50 286.50Q904 301 899 313Q896 304 890.50 289Q885 274 879 257.50Q873 241 868 226.50Q863 212 861 205Q872 204 889.50 205.50Q907 207 914 218Z"  horiz-adv-x="1099" vert-adv-y="1000"  />

      
      <glyph glyph-name="unic2" unicode="&#xc2;" d="M917 345Q920 337 926 321Q932 305 937.50 286Q943 267 945.50 249Q948 231 944 220Q941 213 931 208.50Q921 204 909 201.50Q897 199 885 198.50Q873 198 867 198Q863 189 854 156.50Q845 124 837.50 81.50Q830 39 827-6Q824-51 832-85Q835-97 831-98.50Q827-100 823-91Q811-53 811-8Q811 37 816.50 78Q822 119 829 152Q836 185 839 200Q828 201 803 206Q778 211 750 217Q722 223 696.50 228.50Q671 234 658 237Q652 230 632 207Q612 184 581 152.50Q550 121 510 86Q470 51 424 21.50Q378-8 328.50-28Q279-48 229-50Q189-52 156-38.50Q123-25 99-1.50Q75 22 62 53Q49 84 49 116Q49 149 64 181.50Q79 214 112 241Q140 264 179 277.50Q218 291 264 296.50Q310 302 360 302Q411 302 462 296.50Q513 291 562 282.50Q611 274 654 264Q674 285 700 319.50Q726 354 756 395.50Q786 437 817.50 483Q849 529 878.50 574.50Q908 620 934.50 662Q961 704 981 737Q985 746 993 747Q1001 748 1009 743.50Q1017 739 1023 729Q1029 719 1030 705Q1030 701 1034.50 697.50Q1039 694 1043.50 690Q1048 686 1050.50 681Q1053 676 1050 670Q1029 628 1008 577.50Q987 527 968.50 480.50Q950 434 936.50 397Q923 360 917 345M120 230Q96 214 84.50 188Q73 162 72.50 132.50Q72 103 82.50 73.50Q93 44 113 20.50Q133-3 162-18Q191-33 228-33Q291-33 352-3.50Q413 26 467 68Q521 110 564.50 157.50Q608 205 636 241Q589 254 522.50 267.50Q456 281 384 285Q312 289 242.50 277.50Q173 266 120 230M678 260Q687 257 710.50 251Q734 245 760 239.50Q786 234 810 229.50Q834 225 845 224Q858 276 876.50 331.50Q895 387 915 442.50Q935 498 955.50 551Q976 604 994 652Q999 664 998 672.50Q997 681 993.50 685.50Q990 690 984 689Q978 688 972 679Q955 651 929 612Q903 573 873.50 530Q844 487 813 443Q782 399 755 362Q728 325 707.50 297.50Q687 270 678 260M1008 845Q991 840 968 829Q945 818 917 802Q910 795 910 802Q910 805 910.50 806.50Q911 808 913 812Q919 815 933.50 825Q948 835 971 854Q1009 882 1010 881Q1012 880 1029 862Q1046 844 1078 807Q1080 805 1081 802Q1081 799 1080 798.50Q1079 798 1077 796Q1075 795 1071 799Q1063 807 1054 813.50Q1045 820 1037 828Q1014 846 1008 845M928 234Q932 240 932 251Q932 263 929.50 277Q927 291 922 305.50Q917 320 912 332Q909 323 903.50 307.50Q898 292 892 274.50Q886 257 881.50 242Q877 227 875 220Q885 219 903 221Q921 223 928 234Z"  horiz-adv-x="1077" vert-adv-y="1000"  />

      
      <glyph glyph-name="unic3" unicode="&#xc3;" d="M897 337Q902 351 915 387Q928 423 946 468.50Q964 514 984.50 564Q1005 614 1025 656Q1028 662 1026 666.50Q1024 671 1019.50 675Q1015 679 1010.50 682.50Q1006 686 1005 690Q1004 703 998.50 713Q993 723 985.50 727.50Q978 732 970 730.50Q962 729 957 721Q938 689 912 647.50Q886 606 857 561.50Q828 517 797 471.50Q766 426 737 385.50Q708 345 682.50 311.50Q657 278 638 257Q575 272 500 283Q425 294 352 294.50Q279 295 214.50 281.50Q150 268 110 234Q78 208 63 176.50Q48 145 48 112Q48 80 60.50 50Q73 20 96-3Q119-26 151.50-39.50Q184-53 222-51Q271-49 320-29.50Q369-10 413.50 19.50Q458 49 497.50 83Q537 117 567 147.50Q597 178 616.50 201Q636 224 641 230Q653 227 678.50 222Q704 217 731.50 211Q759 205 784 200Q809 195 820 194Q817 180 809.50 148Q802 116 797 75.50Q792 35 792-9Q792-53 803-91Q808-100 811.50-98.50Q815-97 812-86Q804-52 806.50-7.50Q809 37 816.50 78.50Q824 120 833 152Q842 184 847 193Q854 192 865.50 193Q877 194 888.50 196.50Q900 199 909.50 203.50Q919 208 922 215Q926 225 923.50 242.50Q921 260 916 278.50Q911 297 905 313Q899 329 897 337M118 223Q169 259 236.50 270Q304 281 374 277.50Q444 274 509.50 260.50Q575 247 620 234Q594 199 551.50 152.50Q509 106 456.50 64.50Q404 23 343.50-5.50Q283-34 221-33Q185-33 157-18.50Q129-4 109.50 19Q90 42 80 70.50Q70 99 70.50 127.50Q71 156 82.50 181.50Q94 207 118 223M661 253Q670 263 690 290Q710 317 736.50 353.50Q763 390 793 433Q823 476 852 518Q881 560 906 598Q931 636 948 663Q954 672 960 673.50Q966 675 970 671Q974 667 974.50 658.50Q975 650 971 638Q953 591 933 539Q913 487 893.50 432.50Q874 378 856 324Q838 270 825 219Q815 220 791.50 224Q768 228 741.50 233.50Q715 239 692.50 244.50Q670 250 661 253M878 823Q889 832 903.50 839Q918 846 935 846Q944 846 958 840Q972 834 986 827.50Q1000 821 1014 815Q1028 809 1037 809Q1046 809 1054 813.50Q1062 818 1069.50 824.50Q1077 831 1084 838.50Q1091 846 1096 851Q1103 862 1100 865.50Q1097 869 1087 860Q1077 849 1068 845.50Q1059 842 1037 842Q1027 842 1013 848Q999 854 984.50 861Q970 868 957 874Q944 880 935 880Q927 880 918 875Q909 870 901 862.50Q893 855 885.50 847Q878 839 872 833Q866 823 866.50 818Q867 813 878 823M908 228Q900 216 882.50 214.50Q865 213 855 215Q857 222 861.50 236.50Q866 251 871.50 267.50Q877 284 882.50 299.50Q888 315 891 324Q896 311 900.50 297Q905 283 908 269.50Q911 256 911 245Q911 234 908 228Z"  horiz-adv-x="1049" vert-adv-y="1000"  />

      
      <glyph glyph-name="unic4" unicode="&#xc4;" d="M878 340Q880 332 886 315.50Q892 299 897.50 280.50Q903 262 905.50 244.50Q908 227 904 217Q901 210 891.50 205.50Q882 201 870 198Q858 195 846 194.50Q834 194 827 194Q823 185 814.50 153Q806 121 798.50 79Q791 37 788-7.50Q785-52 793-85Q797-97 793-98.50Q789-100 785-91Q774-53 773.50-9Q773 35 778 76Q783 117 790.50 149.50Q798 182 801 197Q790 198 765 203Q740 208 712 213.50Q684 219 658.50 224.50Q633 230 620 232Q615 226 595 203.50Q575 181 544 150Q513 119 473 84.50Q433 50 387.50 20.50Q342-9 292.50-29Q243-49 193-51Q133-53 89.50-23.50Q46 6 27 51Q8 96 18 147Q28 198 77 238Q119 272 184 285Q249 298 323.50 297.50Q398 297 475 286Q552 275 617 260Q636 281 662 314.50Q688 348 717.50 389Q747 430 778 475.50Q809 521 839 566Q869 611 895.50 652.50Q922 694 942 726Q947 735 955 736.50Q963 738 970.50 733.50Q978 729 983.50 719Q989 709 990 695Q990 691 995 688Q1000 685 1004.50 681Q1009 677 1011.50 672.50Q1014 668 1011 661Q990 619 969 569Q948 519 929.50 473.50Q911 428 897.50 391.50Q884 355 878 340M85 227Q61 211 49.50 185Q38 159 37.50 130Q37 101 47 72Q57 43 77 19.50Q97-4 125.50-18.50Q154-33 191-33Q254-33 315-4.50Q376 24 430 66Q484 108 527.50 155Q571 202 598 238Q551 251 485 264Q419 277 347.50 280.50Q276 284 206.50 273Q137 262 85 227M640 254Q649 252 672.50 246.50Q696 241 722.50 235.50Q749 230 772.50 225.50Q796 221 806 221Q819 272 837.50 327Q856 382 876 436.50Q896 491 916.50 543.50Q937 596 956 643Q960 654 959 663Q958 672 954 676.50Q950 681 944 680Q938 679 933 670Q916 642 890 603.50Q864 565 834.50 522.50Q805 480 774 436.50Q743 393 716.50 356Q690 319 669.50 292Q649 265 640 254M889 230Q897 244 890 273Q883 302 872 328Q869 319 863.50 303Q858 287 852.50 270Q847 253 842 238Q837 223 835 217Q845 216 863 217.50Q881 219 889 230M1044 814Q1044 810 1038 805.50Q1032 801 1024.50 797.50Q1017 794 1009 793Q1001 792 998 795Q996 798 994 807Q992 816 991 825.50Q990 835 990 843Q990 851 992 854Q994 857 1000 861.50Q1006 866 1013.50 869Q1021 872 1027 873.50Q1033 875 1035 872Q1038 870 1039.50 862Q1041 854 1042 844.50Q1043 835 1043.50 826.50Q1044 818 1044 814M944 816Q944 812 938 807Q932 802 924.50 798.50Q917 795 909.50 794Q902 793 900 796Q898 799 896 807.50Q894 816 893 825.50Q892 835 891.50 843.50Q891 852 893 855Q895 858 901.50 862.50Q908 867 915 870.50Q922 874 928 875Q934 876 937 873Q939 871 940.50 863Q942 855 942.50 845.50Q943 836 943.50 827.50Q944 819 944 816Z"  horiz-adv-x="1050" vert-adv-y="1000"  />

      
      <glyph glyph-name="unic5" unicode="&#xc5;" d="M920 343Q926 358 940 394.50Q954 431 972 477.50Q990 524 1011.50 574.50Q1033 625 1054 667Q1058 673 1055 678Q1052 683 1047.50 687Q1043 691 1038 694.50Q1033 698 1033 701Q1032 715 1026 725.50Q1020 736 1012.50 740.50Q1005 745 996.50 743.50Q988 742 983 733Q963 700 936.50 658.50Q910 617 880 572Q850 527 818.50 481Q787 435 757.50 393.50Q728 352 702 317.50Q676 283 657 262Q592 278 515 289Q438 300 362.50 300.50Q287 301 221 287.50Q155 274 113 240Q64 200 53.50 148.50Q43 97 62.50 52Q82 7 126-23Q170-53 230-51Q280-49 330-29Q380-9 425.50 21Q471 51 511.50 85.50Q552 120 583 151Q614 182 634.50 205.50Q655 229 660 235Q673 232 699 226.50Q725 221 753 215Q781 209 806 204Q831 199 842 198Q839 183 831.50 150.50Q824 118 819 77Q814 36 814-8Q814-53 825-91Q830-100 833.50-98.50Q837-97 835-86Q827-52 829.50-7Q832 38 839.50 80.50Q847 123 856 155.50Q865 188 869 197Q876 197 888 197.50Q900 198 912 200.50Q924 203 933.50 207.50Q943 212 946 219Q950 230 947.50 247.50Q945 265 940 284Q935 303 929 319Q923 335 920 343M121 229Q156 253 199 265.50Q242 278 289.50 282Q337 286 385.50 283Q434 280 479.50 273.50Q525 267 566 257.50Q607 248 638 240Q610 204 566.50 157Q523 110 469 68Q415 26 353.50-3Q292-32 229-32Q192-32 162.50-17.50Q133-3 113 20.50Q93 44 82.50 73.50Q72 103 72.50 132Q73 161 85 187Q97 213 121 229M680 258Q689 268 709.50 295.50Q730 323 757 360Q784 397 815 440.50Q846 484 875.50 527Q905 570 931.50 609Q958 648 975 675Q986 692 996 682Q1006 672 998 648Q979 600 958.50 547Q938 494 917.50 439.50Q897 385 879 330Q861 275 847 223Q837 223 813 227.50Q789 232 762.50 237.50Q736 243 712.50 249Q689 255 680 258M1056 837Q1056 857 1044 871.50Q1032 886 1015 886Q998 886 986 871.50Q974 857 974 837Q974 819 986 806Q998 793 1015 793Q1032 793 1044 806Q1056 819 1056 837M1015 803Q1001 803 991.50 813Q982 823 982 837Q982 854 991.50 864.50Q1001 875 1015 875Q1028 875 1037.50 864.50Q1047 854 1047 837Q1047 823 1037.50 813Q1028 803 1015 803M932 233Q924 222 906 220Q888 218 879 219Q880 226 884.50 241Q889 256 894.50 273Q900 290 905.50 305.50Q911 321 914 330Q920 318 925 303.50Q930 289 933 275.50Q936 262 936 250Q936 239 932 233Z"  horiz-adv-x="1065" vert-adv-y="1000"  />

      
      <glyph glyph-name="uni0161" unicode="&#x0161;" d="M632 224Q684 222 717 209Q750 196 766.50 175.50Q783 155 785 129.50Q787 104 777.50 77.50Q768 51 749.50 26Q731 1 706-18Q633-74 544.50-105Q456-136 360-141Q349-142 336.50-139Q324-136 324-136Q311-133 309.50-128.50Q308-124 304-125Q293-130 293.50-135.50Q294-141 306-146Q314-150 330.50-151Q347-152 360-151Q457-146 550-115.50Q643-85 718-30Q762 2 785 47Q808 92 802 133Q796 174 756 203Q716 232 634 234Q573 235 512 225Q451 215 393.50 197Q336 179 283.50 155Q231 131 186 106Q179 110 170 120Q161 130 152.50 142.50Q144 155 137.50 168.50Q131 182 130 194Q127 213 139 232.50Q151 252 171.50 271.50Q192 291 218 308.50Q244 326 269 339.50Q294 353 316 362.50Q338 372 350 375Q376 382 400.50 375Q425 368 438 363Q442 362 448 365Q454 368 461 372.50Q468 377 474 382Q480 387 483 391Q487 396 482.50 403Q478 410 472 410Q435 411 391 400Q347 389 302.50 370.50Q258 352 217 327.50Q176 303 144.50 277Q113 251 95.50 224.50Q78 198 81 176Q83 160 90 146.50Q97 133 105 121.50Q113 110 122 99.50Q131 89 137 79Q126 71 107.50 58.50Q89 46 69.50 32Q50 18 31.50 3Q13-12 2-25Q-5-35 8-39Q17-40 25-38Q33-36 44-34Q59-40 85-36Q111-32 137.50-21.50Q164-11 187 3.50Q210 18 219 33Q227 47 217.50 62.50Q208 78 198 92Q248 121 300.50 146Q353 171 408 189Q463 207 519 216.50Q575 226 632 224M53-15Q59-8 72.50 4Q86 16 102 28Q118 40 131.50 49.50Q145 59 151 62Q154 59 159 54Q164 49 168.50 42.50Q173 36 174 28.50Q175 21 170 14Q164 6 149-2Q134-10 116.50-16Q99-22 82.50-25Q66-28 57-26Q45-24 53-15M245 448Q239 447 220 466Q205 481 190 499Q187 504 185 503Q182 501 182 497Q182 496 184 488Q242 408 243 407Q244 405 278 439Q299 458 311.50 469.50Q324 481 329 485Q332 489 332 495Q332 504 324 497Q301 479 281 467Q261 455 245 448Z"  horiz-adv-x="499" vert-adv-y="1000"  />

      
      <glyph glyph-name="uni0160" unicode="&#x0160;" d="M176-25Q133-58 89-75Q45-92 3-97.50Q-39-103-76.50-99Q-114-95-145-86Q-176-77-198-66Q-220-55-230-45Q-244-32-236-30Q-228-28-218-36Q-190-59-145-70.50Q-100-82-48.50-80Q3-78 56.50-60.50Q110-43 154-7Q170 6 184.50 24Q199 42 209.50 62Q220 82 225 103.50Q230 125 228 145Q224 178 206.50 216.50Q189 255 166.50 292Q144 329 121 361Q98 393 82 411Q59 438 46 471.50Q33 505 34 538.50Q35 572 51.50 604Q68 636 105 662Q156 698 206 718Q256 738 301.50 746Q347 754 386 751.50Q425 749 454 740Q477 734 492.50 720Q508 706 517 689.50Q526 673 529 657Q532 641 530 630Q528 616 515 602Q502 588 485 576.50Q468 565 451.50 556.50Q435 548 425 544Q417 542 413 543Q409 544 408.50 546.50Q408 549 411 552Q414 555 420 557Q427 559 440 566Q453 573 467 582.50Q481 592 494 604Q507 616 513 628Q518 641 517 656Q516 671 508.50 684.50Q501 698 486.50 708Q472 718 450 722Q402 731 354.50 727.50Q307 724 263.50 712.50Q220 701 182 683Q144 665 117 643Q82 616 68.50 585.50Q55 555 56 526Q57 497 69 470Q81 443 97 424Q114 401 138 369.50Q162 338 185.50 302Q209 266 228 228Q247 190 254 153Q262 109 244.50 62Q227 15 176-25M280 811Q296 818 316.50 830Q337 842 360 860Q367 867 367 858Q367 852 364 848Q359 844 346.50 832.50Q334 821 313 802Q279 768 278 770Q277 771 219 851Q217 859 217 860Q217 864 220 866Q222 867 226 862Q238 846 255 829Q274 810 280 811Z"  horiz-adv-x="550" vert-adv-y="1000"  />

      
      <glyph glyph-name="unidf" unicode="&#xdf;" d="M651 619Q638 586 604 550Q570 514 528.50 482Q487 450 445 423.50Q403 397 375 383Q334 363 337.50 349Q341 335 381 320Q389 317 401 312.50Q413 308 426 303.50Q439 299 450.50 294.50Q462 290 470 287Q482 282 498.50 267Q515 252 527 231.50Q539 211 542 188.50Q545 166 532 146Q506 111 463 83.50Q420 56 372 37Q324 18 275 7.50Q226-3 188-6Q171-7 158-2Q145 3 137 10.50Q129 18 126 27Q123 36 127 42Q129 53 137 62.50Q145 72 156 75Q181 84 189 77.50Q197 71 186 65Q175 59 172.50 53Q170 47 174 43Q178 39 186 36.50Q194 34 205 35Q244 40 282.50 48Q321 56 358 70.50Q395 85 428.50 106Q462 127 490 159Q518 193 504 221.50Q490 250 441 263Q422 268 402 274.50Q382 281 365 286Q329 296 306.50 310Q284 324 279.50 341Q275 358 289.50 376.50Q304 395 342 415Q375 432 415 455Q455 478 494 506Q533 534 566 567Q599 600 617 636Q627 657 627.50 685Q628 713 616 737Q604 761 577 774.50Q550 788 507 780Q474 774 435 745.50Q396 717 351 654Q292 573 236 467Q180 361 129.50 239Q79 117 35.50-17Q-8-151-41-289Q-44-304-49.50-309.50Q-55-315-59-313Q-63-311-65.50-302Q-68-293-65-279Q-50-198-24.50-106.50Q1-15 31 76Q61 167 94 252.50Q127 338 158 407Q144 405 122 402.50Q100 400 79 389Q67 382 61 384.50Q55 387 53 393Q51 399 54 406.50Q57 414 63 418Q89 432 122 437Q155 442 177 448Q206 500 240 561Q274 622 318 682Q340 714 365 739Q390 764 415 781.50Q440 799 463 808.50Q486 818 505 818Q541 820 575 805.50Q609 791 631.50 764Q654 737 661 700Q668 663 651 619Z"  horiz-adv-x="531" vert-adv-y="1000"  />

      
      <glyph glyph-name="uni75" unicode="&#x75;" d="M443 297Q429 276 412 246Q395 216 379.50 184.50Q364 153 352 123Q340 93 337 73Q334 55 336.50 47Q339 39 344 37.50Q349 36 356.50 38Q364 40 371 42Q378 44 388 48.50Q398 53 404 57Q420 68 421.50 59.50Q423 51 411 40Q401 29 386.50 19.50Q372 10 359 5Q353 3 344 7Q335 11 327.50 18.50Q320 26 314.50 35.50Q309 45 309 55Q309 74 313.50 95Q318 116 325 136Q332 156 340.50 175.50Q349 195 356 212Q362 227 356 236.50Q350 246 332 228Q308 204 269.50 167.50Q231 131 192 95.50Q153 60 119.50 32.50Q86 5 70 0Q43-9 26 8.50Q9 26 11 51Q13 74 23.50 104Q34 134 50.50 165.50Q67 197 86.50 229.50Q106 262 126 291Q146 320 163.50 343.50Q181 367 194 382Q199 388 207.50 390.50Q216 393 222 391Q228 389 229 382.50Q230 376 221 364Q198 336 172.50 299Q147 262 124 224Q101 186 82.50 150Q64 114 57 87Q45 46 57.50 34.50Q70 23 95 37Q134 61 177.50 100.50Q221 140 263.50 183Q306 226 345 267Q384 308 414 335Q423 344 430 341Q437 338 441 329.50Q445 321 445.50 311.50Q446 302 443 297Z"  horiz-adv-x="470" vert-adv-y="1000"  />

      
      <glyph glyph-name="uni19" unicode="&#x19;" d="M-42-78Q-33-42 34.50 36Q102 114 227 234Q340 343 436.50 427Q533 511 614 571Q626 580 626 587Q626 595 617 595Q608 595 597 587Q519 530 422.50 444Q326 358 208 243Q-48-8-55-75Q-55-93-53-99Q-47-99-42-78Z"  horiz-adv-x="409" vert-adv-y="1000"  />

      
      <glyph glyph-name="uni8" unicode="&#x8;" d="M119 727Q119 744 106.50 756Q94 768 77 768Q60 768 48 756Q36 744 36 727Q36 710 48 698.50Q60 687 77 687Q94 687 106.50 698.50Q119 710 119 727M77 695Q63 695 54 704.50Q45 714 45 727Q45 741 54 750.50Q63 760 77 760Q91 760 100.50 750.50Q110 741 110 727Q110 714 100.50 704.50Q91 695 77 695Z"  horiz-adv-x="143" vert-adv-y="1000"  />

      
      <glyph glyph-name="unic" unicode="&#xc;" d="M91 605Q107 612 127 624Q147 636 170 654Q178 661 178 652Q178 648 175 642Q170 638 157.50 626.50Q145 615 124 596Q90 562 89 564Q87 565 30 646Q28 652 28 654Q28 658 31 660Q33 661 36 657Q51 639 66 624Q85 604 91 605Z"  horiz-adv-x="201" vert-adv-y="1000"  />

      
      </font>
</defs>
</svg>
